<svg xmlns="http://www.w3.org/2000/svg" version="1.1" xmlns:xlink="http://www.w3.org/1999/xlink" viewBox="0 0 5.723859375 6.401719503092918"><g transform="matrix(0.8571428571428572,0,0,0.8571428571428572,0.8176941964285716,4.607321011800567)"><g transform="matrix(1,0,0,1,0,0)" clip-path="url(#SvgjsClipPath13482)"><g clip-path="url(#SvgjsClipPath13480c793fbea-84c9-41a2-ac86-2c32e61a1a5f)"><path d=" M 3.304557886166811 -2.3489868187472274 C 3.3220905432838364 -1.1241876484788689 1.4485414391345166 -1.124177243341114 1.4662301733178658 -2.349070059849266 C 1.4486871110630857 -3.5737443684645656 3.3222362152124054 -3.5737547736023205 3.304557886166811 -2.3489868187472274 Z" fill="#e8a941" transform="matrix(1,0,0,1,0,0)" fill-rule="nonzero"></path></g><g clip-path="url(#SvgjsClipPath13480c793fbea-84c9-41a2-ac86-2c32e61a1a5f)"><path d=" M 0.5918968529104285 -2.322973974359949 C 0.5940715267012049 -2.209557972831416 0.3785915289347478 -2.209557972831416 0.380787013001034 -2.322973974359949 C 0.37861233921025755 -2.4363899758884813 0.5940923369767147 -2.4363899758884813 0.5918968529104285 -2.322973974359949 Z" fill="#e8a941" transform="matrix(1,0,0,1,0,0)" fill-rule="nonzero"></path></g><g clip-path="url(#SvgjsClipPath13480c793fbea-84c9-41a2-ac86-2c32e61a1a5f)"><path d=" M 2.4696080121617126 -4.218332247243563 C 2.4714913420953515 -4.124966946168744 2.28763255796607 -4.124966946168744 2.289536698175219 -4.218332247243563 C 2.287642963103824 -4.3116975483183815 2.4715121523708614 -4.3116975483183815 2.4696080121617126 -4.218332247243563 Z" fill="#e8a941" transform="matrix(1,0,0,1,0,0)" fill-rule="nonzero"></path></g><g clip-path="url(#SvgjsClipPath13480c793fbea-84c9-41a2-ac86-2c32e61a1a5f)"><path d=" M 2.707302979034905 -3.739342135833978 C 2.7083434928103967 -3.659878098799721 2.5982571353634354 -3.659878098799721 2.5992560285879067 -3.739342135833978 C 2.5982467302256804 -3.81881657800599 2.708291467121622 -3.81881657800599 2.707302979034905 -3.739342135833978 Z" fill="#e8a941" transform="matrix(1,0,0,1,0,0)" fill-rule="nonzero"></path></g><g clip-path="url(#SvgjsClipPath13480c793fbea-84c9-41a2-ac86-2c32e61a1a5f)"><path d=" M 3.2259054498774367 -3.5376697558682886 C 3.2267586711733394 -3.4675495325379413 3.131405988787333 -3.4675495325379413 3.1322592100832356 -3.5376697558682886 C 3.1314163939250874 -3.607789979198635 3.2267170506223204 -3.607789979198635 3.2259054498774367 -3.5376697558682886 Z" fill="#e8a941" transform="matrix(1,0,0,1,0,0)" fill-rule="nonzero"></path></g><g clip-path="url(#SvgjsClipPath13480c793fbea-84c9-41a2-ac86-2c32e61a1a5f)"><path d=" M 4.083059887851516 -2.698537016485716 C 4.084287694106596 -2.614432288012768 3.9521736600324875 -2.614432288012768 3.953411871425322 -2.698537016485716 C 3.952163254894733 -2.782652150096418 4.08427728896884 -2.782652150096418 4.083059887851516 -2.698537016485716 Z" fill="#e8a941" transform="matrix(1,0,0,1,0,0)" fill-rule="nonzero"></path></g><g clip-path="url(#SvgjsClipPath13480c793fbea-84c9-41a2-ac86-2c32e61a1a5f)"><path d=" M 0.8435659197884668 -2.7147482211078673 C 0.8453556034823116 -2.6307371388747143 0.6742951387915708 -2.6307371388747143 0.6761056327609253 -2.7147482211078673 C 0.6743367593425903 -2.7987593033410207 0.8453660086200665 -2.7987593033410207 0.8435659197884668 -2.7147482211078673 Z" fill="#e8a941" transform="matrix(1,0,0,1,0,0)" fill-rule="nonzero"></path></g><g clip-path="url(#SvgjsClipPath13480c793fbea-84c9-41a2-ac86-2c32e61a1a5f)"><path d=" M 0.8219544486715162 -1.9773569186928173 C 0.8233383319929194 -1.882732595949654 0.6747113443017672 -1.882732595949654 0.6761056327609253 -1.9773569186928173 C 0.6747217494395219 -2.07198124143598 0.8233487371306744 -2.07198124143598 0.8219544486715162 -1.9773569186928173 Z" fill="#e8a941" transform="matrix(1,0,0,1,0,0)" fill-rule="nonzero"></path></g><g clip-path="url(#SvgjsClipPath13480c793fbea-84c9-41a2-ac86-2c32e61a1a5f)"><path d=" M 1.6376756281055385 -1.1238234686574464 C 1.6386537110545003 -1.0572305870260141 1.5340612663421322 -1.0572305870260141 1.5350393492910939 -1.1238234686574464 C 1.5340716714798872 -1.1904059451511246 1.6386641161922553 -1.1904059451511246 1.6376756281055385 -1.1238234686574464 Z" fill="#e8a941" transform="matrix(1,0,0,1,0,0)" fill-rule="nonzero"></path></g><g clip-path="url(#SvgjsClipPath13480c793fbea-84c9-41a2-ac86-2c32e61a1a5f)"><path d=" M 2.194100774687173 -0.8834231659679768 C 2.1955262785595955 -0.7853027169391633 2.041394972996095 -0.7853027169391633 2.042841287144028 -0.8834231659679768 C 2.04140537813385 -0.9815540201345447 2.1955678991106153 -0.9815540201345447 2.194100774687173 -0.8834231659679768 Z" fill="#e8a941" transform="matrix(1,0,0,1,0,0)" fill-rule="nonzero"></path></g><g clip-path="url(#SvgjsClipPath13480c793fbea-84c9-41a2-ac86-2c32e61a1a5f)"><path d=" M 2.48580881164611 -0.41344390385414487 C 2.4875464696511798 -0.294284266284901 2.3003892568535917 -0.294284266284901 2.302137319996416 -0.41344390385414487 C 2.300399661991346 -0.5325931362856342 2.4875672799266897 -0.5325931362856342 2.48580881164611 -0.41344390385414487 Z" fill="#e8a941" transform="matrix(1,0,0,1,0,0)" fill-rule="nonzero"></path></g><g clip-path="url(#SvgjsClipPath13480c793fbea-84c9-41a2-ac86-2c32e61a1a5f)"><path d=" M 2.7235037785193024 -1.096811731045697 C 2.7247836104631564 -1.0092004711493439 2.587196473929965 -1.0092004711493439 2.5884554955983092 -1.096811731045697 C 2.587175663654455 -1.1844229909420503 2.724794015600911 -1.1844229909420503 2.7235037785193024 -1.096811731045697 Z" fill="#e8a941" transform="matrix(1,0,0,1,0,0)" fill-rule="nonzero"></path></g><g clip-path="url(#SvgjsClipPath13480c793fbea-84c9-41a2-ac86-2c32e61a1a5f)"><path d=" M 2.1886901030546184 -3.5412699335314874 C 2.189917909309698 -3.4571652050585397 2.05780387523559 -3.4571547999207852 2.0590420866284243 -3.5412699335314874 C 2.057814280373345 -3.625374662004435 2.189928314447453 -3.625374662004435 2.1886901030546184 -3.5412699335314874 Z" fill="#e8a941" transform="matrix(1,0,0,1,0,0)" fill-rule="nonzero"></path></g><g clip-path="url(#SvgjsClipPath13480c793fbea-84c9-41a2-ac86-2c32e61a1a5f)"><path d=" M 1.6430550843248277 -3.525058728909336 C 1.644189244340113 -3.4479670632831985 1.5230734408729463 -3.4479670632831985 1.5242180060259864 -3.525058728909336 C 1.5231046562862107 -3.6021607996732286 1.6442204597533776 -3.6021607996732286 1.6430550843248277 -3.525058728909336 Z" fill="#e8a941" transform="matrix(1,0,0,1,0,0)" fill-rule="nonzero"></path></g><g clip-path="url(#SvgjsClipPath13480c793fbea-84c9-41a2-ac86-2c32e61a1a5f)"><path d=" M 1.0704603536720616 -3.362998708376593 C 1.07124073900368 -3.313948888999941 0.9886343503674393 -3.313948888999941 0.989425140836813 -3.362998708376593 C 0.9886343503674393 -3.412048527753245 1.071251144141435 -3.412048527753245 1.0704603536720616 -3.362998708376593 Z" fill="#e8a941" transform="matrix(1,0,0,1,0,0)" fill-rule="nonzero"></path></g><g clip-path="url(#SvgjsClipPath13480c793fbea-84c9-41a2-ac86-2c32e61a1a5f)"><path d=" M 3.776919924826518 -3.362998708376593 C 3.7775546382295673 -3.2998707376175465 3.7060505315778176 -3.2998707376175465 3.7066956501186215 -3.362998708376593 C 3.7060505315778176 -3.4261266791356393 3.777565043367322 -3.4261266791356393 3.776919924826518 -3.362998708376593 Z" fill="#e8a941" transform="matrix(1,0,0,1,0,0)" fill-rule="nonzero"></path></g><g clip-path="url(#SvgjsClipPath13480c793fbea-84c9-41a2-ac86-2c32e61a1a5f)"><path d=" M 4.392758407988695 -2.328488697370052 C 4.3944440403049905 -2.2128459963619687 4.21274952482873 -2.2128459963619687 4.2144871828338 -2.328488697370052 C 4.212801550517504 -2.4441418035158904 4.3944648505804995 -2.4441418035158904 4.392758407988695 -2.328488697370052 Z" fill="#e8a941" transform="matrix(1,0,0,1,0,0)" fill-rule="nonzero"></path></g><g clip-path="url(#SvgjsClipPath13480c793fbea-84c9-41a2-ac86-2c32e61a1a5f)"><path d=" M 4.0848391664076065 -1.9800518493713386 C 4.086275075417785 -1.8819314003425256 3.9321333647165284 -1.8819314003425256 3.9335796788644615 -1.9800518493713386 C 3.9321853904053032 -2.0781827035379066 4.086285480555539 -2.0781827035379066 4.0848391664076065 -1.9800518493713386 Z" fill="#e8a941" transform="matrix(1,0,0,1,0,0)" fill-rule="nonzero"></path></g><g clip-path="url(#SvgjsClipPath13480c793fbea-84c9-41a2-ac86-2c32e61a1a5f)"><path d=" M 3.7661193918369187 -1.299389357996064 C 3.766826941204253 -1.2503291334816575 3.6897664909913805 -1.2503291334816575 3.69048444549647 -1.299389357996064 C 3.68974568071587 -1.348449582510471 3.7668373463420077 -1.348449582510471 3.7661193918369187 -1.299389357996064 Z" fill="#e8a941" transform="matrix(1,0,0,1,0,0)" fill-rule="nonzero"></path></g><g clip-path="url(#SvgjsClipPath13480c793fbea-84c9-41a2-ac86-2c32e61a1a5f)"><path d=" M 3.257328965897269 -1.1230847038768483 C 3.2583694796727602 -1.0529956959597655 3.148262311950289 -1.0529956959597655 3.1492924205880253 -1.1230847038768483 C 3.148272717088044 -1.1931737117939303 3.2583694796727602 -1.1931737117939303 3.257328965897269 -1.1230847038768483 Z" fill="#e8a941" transform="matrix(1,0,0,1,0,0)" fill-rule="nonzero"></path></g><g clip-path="url(#SvgjsClipPath13480c793fbea-84c9-41a2-ac86-2c32e61a1a5f)"><path d=" M 2.319649166837932 -4.349832378190131 C 2.5241621494107127 -4.434613440617148 2.6363607498219204 -4.133062143342065 2.4243560680656038 -4.066812631256545 C 2.4251988842237515 -4.0307276135225125 2.422608004922779 -3.994600975237461 2.4249075403666143 -3.958599198605468 C 2.4897003331664465 -3.9332522830345042 2.494018465334735 -3.8325409547047182 2.431733310733836 -3.801616885297122 C 2.4307864431981394 -3.643229878391863 2.4322743778970914 -3.484853276624359 2.431129812744051 -3.3264662697191 C 2.4578918270496826 -3.3244788884079117 2.4845081694267463 -3.321086813499811 2.511249373456868 -3.31879768319373 C 2.524037287757654 -3.519991426822694 2.4565391591415446 -3.5253500727664737 2.6706248684488436 -3.5236228198991584 C 2.6746620618977492 -3.540666435541703 2.682892525861884 -3.5595517605668667 2.7019755485043917 -3.5635889540157724 C 2.781408370125384 -3.588259535632667 2.8067865011096123 -3.47888072755304 2.730881021187535 -3.4549489107167437 C 2.7303295488865245 -3.3917064834423933 2.731578165417114 -3.328412030479268 2.730381574575299 -3.265169603204918 C 2.767215762227685 -3.2499676969449927 2.8027909282117265 -3.2321228856953197 2.8386782483284154 -3.2148815724354316 C 2.8417477639661137 -3.3453099741932446 2.8383556890580133 -3.4755406783337133 2.8386262226396406 -3.6060002955047907 C 2.931075871592027 -3.6681501833148755 3.027208939309652 -3.72451481453323 3.122197441874237 -3.782627508894409 C 3.1284405245271834 -3.9016518796728388 3.2836435592794393 -3.834653197668965 3.2172899958163708 -3.7431504162522757 C 3.120751127726304 -3.6890436999267373 3.028353504462692 -3.627975946443163 2.9354148140358247 -3.567979922148345 C 2.9327406936328124 -3.4323697617885864 2.9402427979541033 -3.29597921609721 2.931668964444057 -3.160660399594589 C 2.953904743826302 -3.1424722187990044 2.978075878830961 -3.1268749173043924 2.9999474783917845 -3.1082289104475915 C 3.143111768761608 -3.2561171333581447 3.30995815266161 -3.3755160890957514 3.479083261729938 -3.4914293236854625 C 3.444184429699965 -3.552705179924135 3.484285830607393 -3.6136376666168952 3.5541355203561125 -3.607644307270067 C 3.568140835774223 -3.6374030012491128 3.586734816942249 -3.6646124364782056 3.605921890962306 -3.691176753166494 C 3.5610653421008833 -3.7303416916759797 3.5155636746986563 -3.7687158397160925 3.4689694678321636 -3.805747724985822 C 3.454558352041612 -3.7899527258738663 3.4383159320061956 -3.7759994361445304 3.423811169975849 -3.760298083272369 C 3.437233797679685 -3.6909686504113957 3.3940108554457833 -3.6390678232898983 3.322194594661386 -3.654446616891657 C 3.308740751544286 -3.6439270226214417 3.2985749319577375 -3.6296719838972136 3.2862136283049033 -3.617862152545389 C 3.37569781299714 -3.50578841378724 3.2491401224841545 -3.3561209123205966 3.1249339931037783 -3.4269382798805226 C 3.1103668002469025 -3.414379278610345 3.095477048119625 -3.4018723030289415 3.0853112285330764 -3.3853177288608776 C 3.0695682551098957 -3.3593048844735995 3.029123484656556 -3.3549659420298013 3.0072726953712423 -3.3756929764375845 C 2.9752560864993804 -3.4084379449522904 2.996160008248997 -3.464979463512478 3.0447311912889226 -3.460422013175827 C 3.0538044714112047 -3.469443267609335 3.0630234234620564 -3.4783084449765194 3.0722944012016824 -3.487184027481459 C 3.027552308855564 -3.576605781347166 3.116880416481477 -3.6848816448247725 3.2131383458521614 -3.6571727629834436 C 3.232970538413022 -3.672176971626026 3.25021185167291 -3.690115429115493 3.268847453391956 -3.706513926217233 C 3.261865605958411 -3.7691528555017992 3.298824655263855 -3.8109398887255224 3.362691390803501 -3.80536273488889 C 3.3772585836603763 -3.818514829011098 3.389255707491789 -3.834309828123053 3.402168483445634 -3.8490643134595173 C 3.3510376365180004 -3.8872407638822866 3.294818677228214 -3.9176445764021373 3.240046032086362 -3.9501398216107253 C 3.2391511902394394 -3.9291006330702944 3.238797415555773 -3.9079782034278248 3.237798522331301 -3.8869390148873944 C 3.212035401250141 -3.8866476710302567 3.1863243058577555 -3.8874904871884044 3.1606028053276147 -3.8882916827955327 C 3.160852528633732 -3.922025139396955 3.161955473235753 -3.9558210268249065 3.1593125682460057 -3.9895024577375544 C 3.120043578358971 -4.006202703834187 3.0811179580178476 -4.023839412328761 3.0411934444522535 -4.0388956466601185 C 3.040902100595116 -4.010937041512672 3.0397471303043204 -3.983030462054 3.039705509753301 -3.955123882595328 C 3.0387586422176045 -3.941160187728237 3.046583305809298 -3.928954961141726 3.048570687120485 -3.9155011180246255 C 3.0510679201816644 -3.9003928580044946 3.0494239084163883 -3.8849932541272256 3.046281556814405 -3.8700930968621927 C 3.0174281098200364 -3.844184303852464 2.9907077160654243 -3.8159239497101245 2.9614068481475937 -3.790556223863651 C 2.9569742594640016 -3.7662394169304236 2.9410231832857225 -3.742161928165559 2.91495831320967 -3.7382287860942025 C 2.8404783371600155 -3.727188934936242 2.824339968502148 -3.8381181085413507 2.9015044700925703 -3.848367169229938 C 2.9203377694289596 -3.8778761399028667 2.944664981499942 -3.903087788683017 2.9652463439791568 -3.931192065759032 C 2.963800029831224 -3.9525225981566 2.9571719570813455 -3.973509761008256 2.9585662455405037 -3.995090016711942 C 2.9602102573057794 -4.018855351344159 2.960564031989447 -4.042683116802905 2.958118824617043 -4.0664068308841035 C 2.9094748056128323 -4.081556711455255 2.861132535603515 -4.097799131490671 2.8116457004411566 -4.110160435143506 C 2.8101993862932244 -4.069892552031999 2.811552054201363 -4.029572643231718 2.8111046332779015 -3.9893047601202114 C 2.7810962159927377 -3.9676828838655056 2.746655210023981 -3.9525746238453743 2.717957840095936 -3.9291006330702944 C 2.716012079335768 -3.9044820771421747 2.716563551636778 -3.8796137979079366 2.7181035120245047 -3.854943216291042 C 2.8372527444559936 -3.7742513730017055 2.7665290231358615 -3.5922655136683077 2.62485266746499 -3.611462992826119 C 2.4762464900493475 -3.629058080769674 2.479888288263566 -3.845464135796318 2.62370810231195 -3.868376249132633 C 2.6242595746129607 -3.9035560198819876 2.6238641793782738 -3.9387461957690975 2.624061876995617 -3.9739259665184523 C 2.6551628337450466 -3.995651894150707 2.6873563299587424 -4.016087584701353 2.7211418122489395 -4.03343294933879 C 2.7225881263968716 -4.065688876379014 2.722494480157078 -4.09794480341924 2.72218232602443 -4.130263161285994 C 2.6785743936935975 -4.139388467097051 2.634779168883176 -4.147806223540774 2.5905157128737835 -4.153092033520269 C 2.595895169093073 -4.193609639937893 2.5977993093022214 -4.234876416273872 2.5915042009605003 -4.275435643242516 C 3.4885935576379277 -4.190737821917538 4.26749095455732 -3.426907064467258 4.3456647545099685 -2.5254683602082766 C 4.304106634316854 -2.5274141209684453 4.262486083297208 -2.523824348443001 4.220979988792866 -2.5259678068205127 C 4.177195169120198 -2.9487493640780666 3.9654818312210187 -3.339555933014778 3.6666878954509867 -3.637361380698093 C 3.647303123813588 -3.6121393267801882 3.623485763492596 -3.591058517688738 3.6014060611766747 -3.568437748209561 C 3.625712462972148 -3.521999618409392 3.6015413279674884 -3.4701924375276887 3.5493803724021182 -3.461587388604377 C 3.545936271805243 -3.4504747014821318 3.5500775166316973 -3.434076204380392 3.5381116082135495 -3.4275938035590823 C 3.366572507186082 -3.3216695012140853 3.2157500354286443 -3.190710437430772 3.0710874052221127 -3.051271186377207 C 3.0905762282370617 -3.028504744969461 3.112999300098896 -3.0083708034137078 3.13173895319549 -2.9848968126386284 C 3.223012821581572 -3.054975415417955 3.322048922732817 -3.115283593845421 3.4166628403382253 -3.1794728886554684 C 3.459167828067038 -3.231113587333093 3.5074580723875806 -3.277603742822036 3.5535632377795925 -3.325946012831354 C 3.5854029593096213 -3.349170280300316 3.6238811587272832 -3.361323481198052 3.6578227180838034 -3.381166078896668 C 3.6714638536804927 -3.4787558658999806 3.8173022644533274 -3.4545951360330767 3.814159912851345 -3.361926979187837 C 3.817864141892093 -3.313158098530568 3.75254068706676 -3.270361766944618 3.716923900531699 -3.3125962210918027 C 3.6699238932927654 -3.2789043850414 3.6141835703397063 -3.257168052271391 3.5717514185751775 -3.217659744215992 C 3.5504208861776094 -3.1959754371347575 3.5315355611524457 -3.172054025436217 3.50995530544876 -3.150619441661099 C 3.487282510280808 -3.128144344110491 3.4672942406536236 -3.101715294213016 3.438034993286813 -3.0872833681469545 C 3.3519012629516576 -3.0345917505560838 3.2665271076726112 -2.9800063978938196 3.1854190588730775 -2.9198751068081874 C 3.2046061328931343 -2.897056639711667 3.220203434387746 -2.8715848624876443 3.2385476922496546 -2.848162897401339 C 3.2778166821366894 -2.8824998519925464 3.319624525635923 -2.9138921525991135 3.357249503757682 -2.9500291960219203 C 3.4118244512821914 -2.954763533700405 3.4670445173475053 -2.9495817750984594 3.5217651368005836 -2.953712614787159 C 3.576277653498564 -2.995187493878235 3.622133095584458 -3.0473588545813604 3.6776028849558897 -3.0873249886979743 C 3.6810365804150105 -3.2808605509393236 3.9714543802923377 -3.289590461515694 3.990131602562404 -3.0981879525141016 C 4.00696711544985 -2.9858853007253447 3.8852165985796345 -2.8885452370281497 3.779323511647902 -2.930394701078403 C 3.7657968325665183 -2.8621682128194497 3.745933424592392 -2.7951279102645565 3.736215025929305 -2.7261106315362302 C 3.715529612072542 -2.7236238036128064 3.694750551975983 -2.7218757404699816 3.673919466190651 -2.7213762938577455 C 3.6683839329050394 -2.7337896231993546 3.658571888002158 -2.743154247178775 3.648499714655404 -2.751821726928616 C 3.624484656717068 -2.759802467586633 3.6051415056306886 -2.7372545340717407 3.606442147850052 -2.714550523490524 C 3.624984103329304 -2.6878717502869316 3.637470268635197 -2.683865772251291 3.665397658369379 -2.7018354451540225 C 3.6832840901700723 -2.6828044482002897 3.7052181205574244 -2.6681019885526 3.7226259160213906 -2.648665191226426 C 3.7654846784338707 -2.680921118266651 3.816324181504367 -2.7008885776183256 3.8675070541207757 -2.7158407605721333 C 3.8823135651460143 -2.9101983286961204 4.1598914250337815 -2.8860063834159515 4.1479879474421635 -2.6939171353225353 C 4.135023145799545 -2.5608770439882393 3.9531309327059403 -2.5267377870143757 3.8860906301510476 -2.6399456857878105 C 3.7722688282500734 -2.598200273115107 3.823462106004237 -2.577046628059372 3.6823060072211105 -2.583279305574564 C 3.663576759262271 -2.6073463892016733 3.6417259699769575 -2.6286769215992414 3.6221018801711944 -2.6519532147569778 C 3.5244288520658427 -2.6503612286804765 3.4267454188227355 -2.651360121904948 3.329061985579629 -2.6511103985988305 C 3.344014168533436 -2.6051092845843677 3.3580194839515465 -2.5585046725801197 3.3676858569258594 -2.5110676495554793 C 3.593654233549267 -2.511265347172823 3.81961220503492 -2.509767007336116 4.045570176520571 -2.511712768096284 C 4.079511735877093 -2.4884364749385477 4.111757257779562 -2.462808620648201 4.144595872534063 -2.438002772240493 C 4.126053917054811 -2.421208879904066 4.111507534473445 -2.4008252150421945 4.095057011682931 -2.3820855619455994 C 4.0665573393722285 -2.395612241026984 4.042583901984912 -2.416474542225582 4.015374466755819 -2.432030223169174 C 3.8028287178362485 -2.417463030312298 3.588992731835067 -2.4256518737254127 3.3759163208899943 -2.424257585266255 C 3.380296883884812 -2.387184079445506 3.380744304808273 -2.349704773252316 3.3812437514205085 -2.3123711389876944 C 3.594642721635984 -2.3112785995234284 3.8092903083820477 -2.320570387538565 4.021003646281228 -2.2886578300442517 C 4.0468187930511625 -2.297470981722661 4.0691482186732015 -2.315367818661109 4.092466132381958 -2.3295188060077883 C 4.1070333252388345 -2.3126208622938123 4.1256064961313506 -2.2966281655645133 4.134284381018945 -2.2762445007026426 C 4.107563987264332 -2.2504293539327076 4.076067635280217 -2.229795965764719 4.046121648821583 -2.2079659867549153 C 3.822338351126706 -2.200578338948928 3.5978370989267416 -2.2058017181018936 3.373866508752277 -2.204230542300902 C 3.3681308932766223 -2.154802377492697 3.3592089953776396 -2.105796237883947 3.347156520135419 -2.05751809995665 C 3.4398558923939238 -2.056872981415849 3.5325968852034477 -2.0573204023393097 3.6253482831507275 -2.0573204023393097 C 3.6444313057932343 -2.079993197507261 3.6669688341703717 -2.0996797181395537 3.683804347057818 -2.1242982740676735 C 3.7139792465470602 -2.12295601129729 3.744258197413853 -2.1255989162870375 3.7743290455255463 -2.123850853144212 C 3.8109551304228333 -2.1012300836650355 3.8427012057130683 -2.065394789237121 3.8880051754979514 -2.061503267716784 C 3.9626412286139305 -2.1728382416943344 4.135179222865869 -2.130125151210424 4.1495487181054 -1.9971162752893932 C 4.163200258839844 -1.7966196758900081 3.8706181903094943 -1.7800859119974546 3.86478090802899 -1.983412708866175 C 3.8122557726421973 -1.9950248426006558 3.7643088978675667 -2.022588052513416 3.721699858761205 -2.0547295230383367 C 3.7029706108023657 -2.035292725712163 3.6830239617261995 -2.017052519227803 3.664336334318379 -1.997563696212854 C 3.648791058512542 -2.0121308890697303 3.6221226904467043 -2.009872974176914 3.610562582400998 -1.9916847933813293 C 3.602290497885844 -1.970250209606212 3.6232672555997443 -1.9410013673771562 3.647095021058491 -1.9475253887494857 C 3.662796373930653 -1.9494711495096544 3.6668647827928225 -1.9674096069991212 3.67365933774678 -1.9789801201825825 C 3.695634988685152 -1.9757337172030502 3.717860362929644 -1.9732989149684008 3.739794393316996 -1.9692096958307213 C 3.745475598531177 -1.9076112803216465 3.7643609235563416 -1.8482083488788583 3.7735798756071937 -1.7871197851197742 C 3.911156607002629 -1.8638160555112253 4.040710977189029 -1.6953152547081922 3.9372943130429667 -1.578351101205235 C 3.968197572175053 -1.552442308195506 4.001587659230563 -1.5297695130275542 4.03302158038815 -1.5044746231453652 C 4.135709884891369 -1.6976980312540668 4.198328003900427 -1.9147596099592703 4.2196585362979935 -2.132268609587935 C 4.262267575404355 -2.132518332894053 4.304928640199492 -2.132070911970592 4.347641730683401 -2.132518332894053 C 4.264868859843083 -1.2261267830637341 3.494961501943935 -0.4672488711847915 2.595978410195112 -0.36411314575811105 C 2.59622813350123 -0.40463075217573463 2.5957703074400147 -0.44563740006784114 2.5859062368483587 -0.4852081389497682 C 2.6315119556281346 -0.4911910931588426 2.676763899724244 -0.49991059859745857 2.721610043447911 -0.5100764181840058 C 2.721963818131578 -0.5427693610099373 2.722213541437696 -0.5754623038358684 2.7221615157489216 -0.60811362611078 C 2.689270875305647 -0.6301829232889467 2.6553813416379013 -0.6507746909059167 2.6241347129599024 -0.6752371697677129 C 2.622782045051764 -0.7228302698586764 2.624779831500707 -0.7704337750873957 2.623187845424206 -0.8179748494895849 C 2.600296542363401 -0.8297846808414095 2.5771347057209684 -0.8412927631983411 2.5554608037774886 -0.8551524066878828 C 2.4826248394931096 -0.9185092904775378 2.606113014368396 -0.9963605311597838 2.6346959277811375 -0.904888965156359 C 2.6488989408165917 -0.8930271081157599 2.6659113410458715 -0.8851192034220277 2.6814462117139537 -0.8752343225548618 C 2.682840500173112 -0.914357640513328 2.6815918836425223 -0.9534809584717943 2.6808010931731494 -0.992604276430261 C 2.6047187259092386 -0.9621692484971458 2.511343019696665 -1.0208126048838255 2.512393938609911 -1.1043866713312727 C 2.512352318058891 -1.1823350266325643 2.5122690769568523 -1.2602452297620887 2.5121442153037936 -1.3381172807198438 C 2.4855903037532596 -1.3357240990362147 2.459078012753746 -1.3330915991842223 2.432409644687908 -1.3310417870465048 C 2.430266186310397 -1.1558712929425736 2.433356512223605 -0.9806383680121127 2.4301621349328477 -0.8054678739081815 C 2.4945075068092186 -0.7691123225925218 2.488555768013409 -0.6808039184665899 2.425729546249255 -0.6460403532274315 C 2.4223894970299287 -0.6150850684065698 2.4245849810962152 -0.5837864140397975 2.424085534483979 -0.5526958624281222 C 2.5967067698379567 -0.5046865568269614 2.5662301213538217 -0.2533296440815711 2.385659360755092 -0.24997918972448918 C 2.2079396079012077 -0.24997918972448918 2.1758501630650615 -0.5014401538474296 2.3446006871742124 -0.5510518506628466 C 2.34489203103135 -0.582839546504101 2.3459949756333707 -0.6146896731718834 2.3443925844191145 -0.6464357484621179 C 2.281202182833538 -0.6726983161555142 2.2784656316039964 -0.7729726286995944 2.3389194819600307 -0.8037718364541311 C 2.3389194819600307 -0.9795458285478462 2.339117179577374 -1.1552677949527883 2.3384616558988145 -1.3310417870465039 C 2.3114082977360457 -1.3318429826536322 2.2848439810477568 -1.3373785159392448 2.2577802177472326 -1.338221332097393 C 2.2581339924309 -1.2885367993176917 2.2571871248952027 -1.238841861400235 2.2579779153645765 -1.1891573286205346 C 2.2626706324920414 -1.1472246234682424 2.2371052090282246 -1.1254050495961931 2.1965876026105997 -1.1255715318002721 C 2.16603811816218 -1.1252697828053795 2.1355406594025355 -1.1246246642645747 2.105022390367381 -1.1223251288207399 C 2.0955329047349016 -1.0770003487603463 2.0673974122456222 -1.077884785469514 2.0289712385167347 -1.072286821357371 C 2.0193464860934416 -1.0879881742295323 2.0022092242111027 -1.0999540826476806 2.0008149357519445 -1.1197862752085412 C 1.995612366874489 -1.1455493962897019 2.0106269806548256 -1.172311410595333 2.0355472855778385 -1.1807395721768112 C 2.0351622954809065 -1.2498400920071764 2.0403128386695877 -1.3192735762456995 2.035849034572731 -1.3881555881832126 C 2.0002634634509344 -1.4031597968257947 1.96442816902302 -1.4182056260193958 1.930986056278735 -1.4376008027945506 C 1.9301952658093615 -1.3095655827203676 1.9308403843501665 -1.1815303626461842 1.9312878052736275 -1.0535055477097566 C 1.8370484726273963 -0.9939985648894192 1.7429548119097338 -0.9340961868343944 1.646665667125785 -0.8779812789221588 C 1.643481694972782 -0.8647667539734214 1.6460205485849806 -0.8490237805502403 1.6362605293708739 -0.838160816734113 C 1.6187174671160935 -0.8127410651988649 1.579802251912725 -0.811794197663168 1.5560785378315278 -0.8283903923822518 C 1.534446256439067 -0.8484202825604554 1.5346439540564107 -0.8828612885292122 1.5463601391684405 -0.9080833424471173 C 1.5528425399897505 -0.9227753969570514 1.5684814620353822 -0.9292577977783609 1.581737607535139 -0.9363332914517013 C 1.6696610215641392 -0.9821991386753499 1.7490834380473765 -1.0425281273783247 1.8351131170049828 -1.0915779467549775 C 1.8383491148467601 -1.2188119712220322 1.8345616447039723 -1.346045995689087 1.837194144555965 -1.4732800201561416 C 1.8364449746376112 -1.4810526580590602 1.8391399053161335 -1.4915722523292758 1.8308157951122046 -1.4960568667016418 C 1.8089650058268907 -1.5118518658135969 1.7874055603987145 -1.528104690986769 1.7669802749858239 -1.5456373481037944 C 1.6178850560957008 -1.411972948504204 1.4557105790476537 -1.2949775795879823 1.291080489489448 -1.1814575266819007 C 1.334126544381516 -1.1162693386473816 1.292620449877175 -1.0509354786842935 1.2155287842510376 -1.0590514861331242 C 1.2040831327206352 -1.0257550453174087 1.183137590419999 -0.9975571220015986 1.162951623175471 -0.969151095930691 L 1.1627539255581278 -0.9606292881094189 C 1.1666870676294843 -0.963563536956304 1.17068264052737 -0.9664561652521688 1.1746157825987267 -0.9692967678592592 C 1.178455278430289 -0.9644167582522059 1.1769049129048073 -0.9588916301043486 1.1736689150630297 -0.9541468872881089 C 1.2134893772510749 -0.9156478775949375 1.258991044653302 -0.8836312687230756 1.2997063486882696 -0.8462560139074342 C 1.315948768723686 -0.8622487106367327 1.3318478192131906 -0.878647207738473 1.3481006443863617 -0.8946399044677715 C 1.3304119102030127 -0.964354327425677 1.3787125596613106 -1.016171913445135 1.4494674963947072 -0.997203347317932 C 1.461144607110288 -1.0122424808663402 1.4737085881909537 -1.026571534510329 1.487092474516466 -1.0401141354191856 C 1.3782963541511144 -1.140273991447962 1.5177564154801897 -1.3111991893478887 1.6392988295953081 -1.231568670109553 C 1.6592246683959633 -1.2411413968440717 1.673885507492633 -1.2577375915631546 1.686444508762811 -1.2754263257465044 C 1.73171726313443 -1.3325505320209667 1.8166231872145053 -1.2545536194101525 1.7607996231594067 -1.2058055490283932 C 1.7500823312718483 -1.196940371661209 1.7353798716241586 -1.1978872391969055 1.7224254751192942 -1.1959414784367373 C 1.7119058808490786 -1.188064789156269 1.7047367409359448 -1.176702378727906 1.6951640142014264 -1.1677331499831722 C 1.7324456227772733 -1.0893304369999162 1.6652908637070765 -0.9913452547619168 1.5785432302443814 -0.9998774677209434 C 1.571415710882267 -1.0000751653382873 1.5630916006783382 -1.0025723983994657 1.5575664725304803 -0.9964957979505975 C 1.5376718491430899 -0.9799412237825345 1.5190674628373086 -0.9619507406042929 1.499453778169301 -0.9451568482678652 C 1.5122520976078417 -0.8828092628404369 1.4646485923791226 -0.8385770222443094 1.4033207104516756 -0.8473485533716998 C 1.392051946263107 -0.8315951748107642 1.3817404547479897 -0.8145515591682191 1.3649881829625827 -0.803792646729641 C 1.4136946327933222 -0.7616726490977599 1.4733993132310033 -0.7330377099962444 1.5289003180156995 -0.7007817829560197 C 1.5290043693932487 -0.7247135997923158 1.529940831791191 -0.7485725806643266 1.5310437763932112 -0.772389940985319 C 1.5570566207804892 -0.7724939923628678 1.5830694651677675 -0.7728373619087798 1.6089886633152515 -0.7726396642914368 C 1.610029177090743 -0.7343175419400989 1.6089886633152515 -0.6959433938999857 1.610029177090743 -0.657569245859873 C 1.6488750247090778 -0.639478179683334 1.6881127991828482 -0.6223825383520145 1.7277425005120537 -0.606282321865915 C 1.729095168420192 -0.6311506011001531 1.7292928660375353 -0.6560292854721466 1.7298859588895652 -0.6808455390176089 C 1.7311866011089292 -0.6966925638183392 1.7192206926907811 -0.7095533140834092 1.7193247440683301 -0.725202641266796 C 1.7138620467470018 -0.772025761163897 1.7262649709508562 -0.7800481223729334 1.7587498110216893 -0.8097651958009595 C 1.7771877151233917 -0.8264654418975925 1.79262893955168 -0.8460479111523354 1.8101303812554408 -0.8636950247846649 C 1.820441872770558 -0.8741001625395763 1.820296200841989 -0.8914559323147677 1.8325534531172747 -0.900425161059502 C 1.8565789161933646 -0.9218493396968639 1.8987405343762649 -0.9140767017939453 1.9139320354984355 -0.8858579682026262 C 1.9331295146562468 -0.8559015766062368 1.9130371936515131 -0.8077049785254875 1.8754330258052638 -0.8067789212653009 C 1.849170458111868 -0.7730870852148981 1.8211078015868722 -0.7403004961491724 1.801556547745394 -0.7020720200376283 C 1.8149063394849452 -0.6615544136200038 1.8068839782759085 -0.6184459279014058 1.808975410964646 -0.5766797049531931 C 1.8581709022698665 -0.5602395873004333 1.9076057117434495 -0.5445382344282721 1.9579873887527302 -0.531937612607075 C 1.9590279025282211 -0.5750981240144464 1.959288030972094 -0.6183002559728386 1.9593400566608685 -0.6613671211404153 C 1.9892860431195034 -0.6800963690992563 2.0176088280883713 -0.701582978563148 2.0499375910928808 -0.7161813868332882 C 2.0513318795520394 -0.7411016917563003 2.0542245078479042 -0.7661260480568615 2.0504890633938913 -0.7909423016023251 C 1.8862127485193525 -0.8972619991820081 2.0666586474650233 -1.1275797233869698 2.214702947441901 -1.0040395228229078 C 2.2995984663842224 -0.9328891908548247 2.2528377773136508 -0.7873421239391263 2.1441353031880928 -0.7742940811944674 C 2.1432300562034152 -0.6310153343093385 2.1608563595602357 -0.6965364867520156 2.0481999330878113 -0.6110790903709296 C 2.0453073047919457 -0.5771895567031837 2.0463998442562117 -0.5429566534895249 2.047346711791908 -0.5089110427554564 C 2.092754732954341 -0.499244669781143 2.1382980209075875 -0.4900257177302927 2.1843511606108246 -0.4839387121436691 C 2.1743830386416203 -0.4441286550933783 2.173436171105923 -0.4027786376553615 2.174736813325287 -0.361896851416315 C 1.2785527036325361 -0.46811249761844875 0.5035572333712363 -1.2255232850739493 0.4242076528522831 -2.132050101695082 C 0.46611954772906555 -2.1315506550828465 0.5080314426058481 -2.132050101695082 0.5499017169316109 -2.1326015739960926 C 0.5738335337679068 -1.914093681142956 0.6359209907514622 -1.6992171813662842 0.7381306589179555 -1.5042561152525122 C 0.7696270109020719 -1.5291243944867503 0.8035165445698178 -1.551006399185328 0.8329734895539714 -1.5783615063429899 C 0.7264352840814352 -1.6953256598459467 0.8601204939565348 -1.8649918360775297 0.99788451783156 -1.7864642614412145 C 1.0080503374181082 -1.847615256026828 1.0240950598361813 -1.9079130293165387 1.029776265050363 -1.9697611681317313 C 1.05360403050911 -1.9731532430398326 1.0774734165188762 -1.9764412665703843 1.1014884744572115 -1.978584724947896 C 1.1121433355182406 -1.929201941163087 1.1768320769405238 -1.9420522862904024 1.1622960994969127 -1.991591147141535 C 1.145720715053339 -2.0142431320339766 1.1342958737984468 -2.0086347627840797 1.110915529263161 -2.001455217733191 C 1.0896494397862102 -2.017035081069515 1.0703095046249873 -2.035086152933918 1.053302281514217 -2.055228969650572 C 1.0067392900609895 -2.0274888723959785 0.9609670890771349 -1.9961590026159408 0.9069332087158809 -1.9838601297896354 C 0.9120109159402777 -1.88425174606187 0.8032252007126806 -1.8072225112622617 0.7113166189235494 -1.846720414179905 C 0.48760615719295736 -1.9662338264328159 0.7336460445455889 -2.2598043830498815 0.8875900576295009 -2.0590684654821336 C 0.9358074659857596 -2.0668202931095423 0.9586987690465644 -2.099814984930366 0.9980822154489036 -2.1228623650574945 C 1.0277888837391753 -2.125505270047242 1.057932567815153 -2.1240589558993093 1.0878369337227678 -2.124652048751339 C 1.1062748378244707 -2.102728423501741 1.1252954296404485 -2.0810961421092804 1.1461993513900652 -2.061461647165763 C 1.1521823055991391 -2.054729523038336 1.1620984018795695 -2.0575701256454266 1.1700687373998315 -2.056675283798504 C 1.255942339291114 -2.0586210445586723 1.341909587422191 -2.0557804419515815 1.4277727841757184 -2.05831929556378 C 1.415213782905541 -2.1061829292363714 1.4046005423955312 -2.154754112276297 1.4003656513292824 -2.2040952755100864 C 1.1771962567619458 -2.2046883683621163 0.9539852416435898 -2.202992330908066 0.7309511138670671 -2.2067902061886087 C 0.7212327152039799 -2.210619296882416 0.7138658776735027 -2.2184959861628837 0.7056874393981425 -2.224676637989301 C 0.6825151976179553 -2.244113435315475 0.6565959994704713 -2.2599084344274307 0.6333301114504899 -2.2791995598250363 C 0.6453376404196572 -2.3000098353348584 0.66436863737339 -2.3154302494876373 0.6808191601639049 -2.332577916507731 C 0.705635413709368 -2.317771405482492 0.7282145626375254 -2.298136910538975 0.7558714187900797 -2.288969984176898 C 0.9666066737402972 -2.3203830950589754 1.1802241518486252 -2.31160115879383 1.392665849390648 -2.31223587219688 C 1.392513240703576 -2.349465455083952 1.3941745943651103 -2.3866117968689857 1.3976499103752507 -2.4236748975519795 C 1.1839179757516187 -2.42766006531211 0.9688541834953581 -2.413269759797068 0.7558402033768148 -2.4325504800569187 C 0.7298273589895368 -2.4167971014959835 0.7050111054440733 -2.3989522902463105 0.6796954052863744 -2.3821063722211093 C 0.6627974615723984 -2.401595195236058 0.6452023736288435 -2.420438899710202 0.6289599535934272 -2.440375143648612 C 0.6604563055775434 -2.4655971975665167 0.6940440902503968 -2.4881243208058996 0.7264873097702104 -2.5121705941574994 C 0.9533817436538049 -2.508643252458585 1.1805467111190273 -2.511296562586087 1.4075139809669066 -2.5113277779993517 C 1.4154843164871687 -2.5589208780903157 1.4289381596042687 -2.6053173873394653 1.4436926449407328 -2.6512248551141333 C 1.349203588988384 -2.6497265152774263 1.2546625073472601 -2.6511208037365845 1.1601214257061367 -2.651318501353928 C 1.1512042226501777 -2.6524214459559485 1.1463138079053694 -2.6435978891397838 1.1410384030636296 -2.6381664072317204 C 1.1252329988139194 -2.618282188982085 1.1060459247938628 -2.601488296645658 1.0892520324574364 -2.5824468945541703 C 0.9406562601795488 -2.57547545225838 1.0052721656375474 -2.598325134768165 0.8842708186856847 -2.6385618024664064 C 0.8130788661665818 -2.5207652379430563 0.6223839065323233 -2.5683479328962653 0.6252661296904337 -2.709316739199803 C 0.6325497261188717 -2.8919060965229857 0.8942389406548895 -2.9004695248952777 0.9065898391699694 -2.7162361558068193 C 0.9573877216894459 -2.70030588990405 1.0088931535762566 -2.680359240827885 1.0521681214989327 -2.648810863154994 C 1.0713031698302147 -2.6656047554914206 1.0917076449675953 -2.6815974522207195 1.1061915967224318 -2.7028343383784934 C 1.1181991256915995 -2.6973508307816547 1.131007850267895 -2.686779210822665 1.1448674937574372 -2.69261649310317 C 1.2030218086696363 -2.722874633694452 1.1287811507883443 -2.7927867542697005 1.0981172098246208 -2.721220216791421 C 1.0773797702790828 -2.721573991475088 1.0567047615600742 -2.7227705823169024 1.0362690710094282 -2.7261522520872488 C 1.0227423919280438 -2.7949822383359866 1.0064167307905878 -2.863260752283714 0.9919639944490163 -2.931882635777354 C 0.8579146047524947 -2.880304367926259 0.7341142757445607 -3.028348667903136 0.8006447265494632 -3.1529605976559534 C 0.8704840111604275 -3.297321478867592 1.0960778028246583 -3.247470463883812 1.0956720024522169 -3.0856809769326974 C 1.1547315643490932 -3.0495439335098906 1.1987348919146128 -2.9937828002813207 1.2544544045921624 -2.953213168174922 C 1.3085611209177008 -2.9512153817259787 1.3628551297228277 -2.952359946879019 1.4170763025636703 -2.9516211820984206 C 1.4552527529864399 -2.914641322517466 1.498236377051978 -2.8830409191558006 1.538577096127769 -2.8486103183247993 C 1.554975593229509 -2.8722820067172226 1.5713636851934945 -2.8959536951096454 1.5889067474482745 -2.9187721622061655 C 1.4639826635628101 -3.0141560600054373 1.3116410416931545 -3.0748492285298346 1.2145402961643228 -3.201791909139752 C 1.1714214053079703 -3.256429287490791 1.1030908656714682 -3.2803715094648416 1.047236086203105 -3.3195052325610623 C 1.048130928050027 -3.3176635231784433 1.0499726374326466 -3.3139176735866753 1.0508674792795687 -3.3120759642040563 C 1.0322318775605228 -3.284814503286188 0.9878747753113362 -3.293939809097245 0.9711329086636837 -3.318860114020258 C 0.9499480481946846 -3.350408491693149 0.9563784233272196 -3.3979391609575833 0.9848885007756765 -3.4231195943244686 C 1.0265922928973605 -3.4667379317930567 1.1128716951610849 -3.4425043659618684 1.1165030882375488 -3.3792099129987436 C 1.1471415943085073 -3.3676117800880325 1.1769194207769402 -3.353856399248574 1.2056126879706097 -3.3380471880403144 C 1.2227603549907027 -3.3295670007700617 1.23362331880683 -3.3134286321121946 1.2463279920055768 -3.2997666862399964 C 1.275139818448926 -3.2682703342558796 1.303847593514726 -3.236680336031969 1.3330444100550072 -3.20547532790499 C 1.3475491720853534 -3.1904294987113886 1.3581624125953629 -3.1703892033954295 1.377952984605204 -3.1613679489619213 C 1.4682695803178338 -3.1087907878863543 1.5537998126632042 -3.047535741923192 1.6388930292228683 -2.9868425733987944 C 1.658184154620474 -3.0090159219545107 1.6801598055588465 -3.0286087963470085 1.6988994586554418 -3.0513544274792443 C 1.5538830537652382 -3.193197265354196 1.39833664946707 -3.321034787811036 1.2278900879038688 -3.431121145257997 C 1.2261420247610437 -3.4415262830129083 1.224352341067199 -3.4518585848035355 1.2224586059958051 -3.4622221020074266 C 1.1680917612263937 -3.4686524771399623 1.1518285309154677 -3.522436634195098 1.171327759068171 -3.568219240316708 C 1.149196031063475 -3.5906006916275217 1.1271683544363276 -3.613127814866905 1.104995005880612 -3.635457240488944 C 0.8040159911820492 -3.342573422963702 0.5931766848542824 -2.9462417258791325 0.55243016540605 -2.5255932218613353 C 0.5103621934629439 -2.5251458009378744 0.4683046266575926 -2.5257492989276598 0.4262886804032609 -2.525999022233777 C 0.5069180928660683 -3.426199515099924 1.2810291264182005 -4.190092703376734 2.1778791649272664 -4.2767675008751445 C 2.1716360822743193 -4.236000171151402 2.173144827248781 -4.194181922514414 2.1809174651517003 -4.153716341785564 C 2.135717546744366 -4.14942942503054 2.0913084188064044 -4.1396173801276595 2.0466079470113057 -4.131990414153309 C 2.0466079470113057 -4.098298578102907 2.0454633818582657 -4.064565121501484 2.0477004864755717 -4.030873285451082 C 2.07949858745458 -4.012778750895291 2.1095486252907643 -3.991947665109959 2.139265698718791 -3.97072118408994 C 2.13996284294837 -3.9270196055193125 2.137371963647397 -3.8832555961221558 2.1407120128667234 -3.8396996894800974 C 2.178389016677257 -3.815029107863203 2.2179597555591846 -3.79305345692483 2.2550852870687077 -3.767383982083464 C 2.2565836269054147 -3.6176228343770265 2.2567292988339838 -3.4678616866705885 2.25716631461969 -3.318100538964151 C 2.2837826569967525 -3.322189758101831 2.310690343230953 -3.323636072249764 2.3375564089141347 -3.325384135392589 C 2.340303365281431 -3.483864788537642 2.3388050254447235 -3.6424494930602447 2.3395021696743026 -3.800898930792033 C 2.2775083589305414 -3.828607812633362 2.280994080078437 -3.9315770558559633 2.3433832860568846 -3.9562372323351034 C 2.345329046817053 -3.99296736860994 2.3445798768987 -4.029749530573551 2.344486230658905 -4.066531692537162 C 2.2102599536205503 -4.095770129628463 2.193611733212692 -4.296485236920701 2.319617951424667 -4.349811567914621 M 2.3637669509187558 -4.275102678834359 C 2.2636487154409997 -4.235792068396304 2.345037702959915 -4.102002807143655 2.4293193187746964 -4.161374523173179 C 2.4880875368144353 -4.208197643070279 2.433117194055239 -4.297848309966595 2.3637669509187558 -4.275102678834359 M 1.8090898674799467 -4.069080951287116 C 1.806696685796317 -4.026076516946067 1.8125235629390672 -3.982520610304009 1.8034502828167847 -3.939953191748667 C 1.79928822771482 -3.9264265126672826 1.8130750352400777 -3.9175301198868335 1.8198487799185248 -3.9076140236064028 C 1.8437805967548206 -3.881944548765037 1.8650486983258594 -3.852466793505373 1.89430794569267 -3.832697031771042 C 1.9459902649213139 -3.8308032966996484 1.9980679793846445 -3.8310009943169914 2.049843944853083 -3.833248504072052 C 2.050447442842868 -3.8643876129932497 2.050447442842868 -3.8955336586729508 2.049843944853083 -3.9266866411111554 C 2.018441239108761 -3.942637717289434 1.989338068808274 -3.9625739612278443 1.9596314005180024 -3.9813136143244394 C 1.9582371120588442 -4.023974679119576 1.9583931891251678 -4.066635743914712 1.95873655867108 -4.109296808709848 C 1.9079074607383386 -4.0994743586692115 1.859065744116785 -4.082181019720549 1.809131488030966 -4.06907054614936 M 1.609581756167278 -3.9911256592273205 C 1.6092279814836112 -3.9567887046361134 1.6096858075448273 -3.9224517500449063 1.6091343352438168 -3.888021149213905 C 1.5832671627851076 -3.887115902229228 1.5573479646376236 -3.888021149213905 1.531491197316669 -3.8875217026016693 C 1.531137422633002 -3.909247630233924 1.5291916618728336 -3.930931937315159 1.529243687561608 -3.9526578649474136 C 1.4734305286442642 -3.9218066315041016 1.4185018064360875 -3.8891136886781705 1.3667258409676493 -3.8517280287247746 C 1.3803233736371543 -3.837390380014156 1.3930210738519508 -3.8222254200422427 1.4047462143240956 -3.8063200075623405 C 1.4641803611801478 -3.8113769045112287 1.5132197754190446 -3.7723264225170468 1.5003382148784645 -3.70979154461003 C 1.518828144668942 -3.691946733360357 1.536756197020654 -3.673311131641311 1.557056620780486 -3.6575577530803756 C 1.6509942044318249 -3.6765887500341083 1.7395835472771393 -3.5809759392042286 1.6969953184462874 -3.4906593434915987 C 1.705985976900655 -3.479632493017446 1.7157982973800296 -3.4693019039271435 1.7263482120528917 -3.4597560843595128 C 1.7604354433379812 -3.465791064257361 1.7878425761844172 -3.4291545742223186 1.7774270332917512 -3.397762273615751 C 1.7680103836235568 -3.3628738467235344 1.7172749319306093 -3.3498986399431594 1.6927084016912637 -3.376535792595732 C 1.6776105468088875 -3.3940268291617377 1.6618571682479517 -3.4108727471869393 1.644116408375828 -3.425720878763198 C 1.5215751010362384 -3.3557775427746845 1.3893362053090712 -3.5053305877260237 1.4834402711644887 -3.6154481605862494 C 1.4709655707112408 -3.6286021883395057 1.4593007740780868 -3.642501260884223 1.4485102237212524 -3.657068711605894 C 1.3736660678501749 -3.637538268039926 1.331566880493804 -3.690105023977738 1.3482879368659464 -3.7616715614560174 C 1.3301934023101556 -3.774157726761911 1.3148458241216616 -3.789765433394278 1.2995918921729617 -3.8053731400266444 C 1.2530497109952439 -3.769995671659946 1.2086926087460572 -3.7319128674769715 1.1646892811805374 -3.6935387194368583 C 1.1835225805169265 -3.665528088600637 1.2066532017460943 -3.639764967519477 1.2175161655622218 -3.607176076071095 C 1.2879173276119515 -3.6162701664688877 1.332607394269295 -3.5523826206537326 1.2925684241883966 -3.491606211027296 C 1.4596437211190063 -3.374257067427407 1.6263548382281947 -3.2558465997765165 1.7689572511592533 -3.108697141646562 C 1.7912346510925181 -3.1248979411309588 1.8127628811074294 -3.1421912800796212 1.8365906465661763 -3.156144569808957 C 1.8359871485763917 -3.2896112717912036 1.8362888975712839 -3.42311959432447 1.8364865951886271 -3.5565862963067163 C 1.8387861306324624 -3.5671058905769315 1.827715064061237 -3.570112975388101 1.8210349656225842 -3.57487852847985 C 1.736420385399646 -3.625759652101366 1.6544799255797198 -3.681010933579945 1.5693658987445456 -3.730955594803519 C 1.5409078469848634 -3.7461054753746694 1.5348208413982403 -3.7844275977260082 1.5426038844389136 -3.81288564948569 C 1.5560057018672395 -3.8524251729543533 1.6191544829017959 -3.857045054117534 1.6392363987687746 -3.8214074573069627 C 1.6469570109829188 -3.8088484560367846 1.64212902706464 -3.793001431236055 1.6477061809012725 -3.779849337113847 C 1.7403119069199826 -3.719124953176185 1.8392751721069434 -3.667754788080188 1.9307259278348583 -3.60536558210174 C 1.9316727953705553 -3.474541785109241 1.9298206808501812 -3.343676367565722 1.9307259278348583 -3.212852570573223 C 1.965312605732183 -3.2317899212871617 2.001688967323353 -3.2473872227817737 2.038273431669621 -3.26189198481212 C 2.0366606353176095 -3.32045210009676 2.037180892205355 -3.3787937074885477 2.037524261751268 -3.4373122022221683 C 2.0379196569859546 -3.4509741480943674 2.0264115746290225 -3.459641627844208 2.019377701506703 -3.4698594731195307 C 1.9417033481662898 -3.5723812954186713 2.0577830649600797 -3.7130691630028263 2.173873186891625 -3.6581924664834244 C 2.174174935886517 -3.679325301263649 2.17617272233546 -3.700603807972443 2.1733321197283693 -3.721663806788383 C 2.1508466170400062 -3.7416520764155674 2.1231897608874517 -3.754752144849001 2.1000175191072645 -3.7738975983180376 C 2.1079878546275266 -3.703257118099945 2.025256604338227 -3.69273752382973 1.993666606114317 -3.74667775795119 C 1.8610219100147083 -3.74197463568597 1.8746734507491518 -3.725420061517906 1.7779785055927613 -3.8170060840366347 C 1.7604770638890008 -3.834341043536317 1.7376065711037059 -3.8463589776432396 1.7231538347621342 -3.8665865654387868 C 1.7176703271652958 -3.89080972613222 1.719761759854033 -3.9163231239072624 1.7273158898640986 -3.939901166059892 C 1.731353083313004 -3.972594108885823 1.7260776784712641 -4.005630421257666 1.7271181922467553 -4.038479441149921 C 1.6877451509821713 -4.023277534889996 1.6485281867839103 -4.007680233395384 1.609654592131562 -3.991177684916094 M 2.636090216240292 -3.789786243669787 C 2.5942303470522843 -3.783459919914801 2.58297198800147 -3.719915743645558 2.620149545199768 -3.700083551084697 C 2.7016425840962333 -3.658130035656895 2.7279467723406485 -3.798443318281873 2.636090216240292 -3.789786243669787 M 2.0995492879082933 -3.5826199509695043 C 2.0746810086740552 -3.568167214627932 2.0759816508934192 -3.5285964757460047 2.0997469855256368 -3.5137483441697466 C 2.12452161852008 -3.493156576552777 2.168420894708051 -3.5133945694860795 2.166527159636657 -3.5463372356181284 C 2.169971260233533 -3.5799770459797564 2.1259471223925033 -3.602202420224247 2.0995492879082933 -3.582619950969504 M 1.5606672035814397 -3.573796394153339 C 1.5312102585972858 -3.560737946270925 1.529066800219774 -3.51509060694013 1.5557767888366314 -3.4979949656088105 C 1.5778044654637784 -3.4803062314254616 1.6158872696467537 -3.490867446246696 1.622556962947652 -3.5193254980063786 C 1.6367183554320857 -3.5544116225159397 1.5939532392594007 -3.593482914785631 1.5606672035814397 -3.573796394153339 M 3.1657637536540486 -3.574597589760467 C 3.1409475001085863 -3.5612373928831613 3.1346627969046197 -3.5236644404501765 3.155743605996069 -3.5041235917464535 C 3.1787181501589132 -3.4757695913643203 3.232595953453844 -3.494654916389484 3.2320444811528333 -3.531582750281664 C 3.236279372219083 -3.5659197048728712 3.195064621571879 -3.590892035484658 3.1657637536540486 -3.574597589760467 M 2.1190485160609978 -3.429341866701907 C 2.1189548698212035 -3.3825187468048066 2.118559474586517 -3.3356956269077056 2.1203491582803617 -3.2889453429748894 C 2.13873503669329 -3.295479769484974 2.161667960305114 -3.293679680653374 2.1775149851058444 -3.305094116770512 C 2.178711575947659 -3.3513969797798673 2.1767137894987156 -3.3976998427892218 2.1777126827231874 -3.4440443263495966 C 2.15981584578474 -3.433576757768156 2.1387870623820646 -3.4333270344620384 2.1190485160609978 -3.4293418667019067 M 2.59248228390946 -3.440454553824152 C 2.5928880842819013 -3.3950049121107 2.591837165368655 -3.349596890948267 2.5926383609757835 -3.3041472492348145 C 2.610327095159133 -3.299568988622654 2.6281198807200306 -3.29532369241865 2.646110363898272 -3.292087694576873 C 2.6483994942043525 -3.341324806433113 2.6475046523574304 -3.3906659696669017 2.647452626668656 -3.4399551072119166 C 2.6291187739445023 -3.4400591585894658 2.6107745160825937 -3.440454553824152 2.59248228390946 -3.440454553824152 M 3.723385491077498 -3.393953993197454 C 3.7084853338124653 -3.387221869070026 3.6951251369351596 -3.3693354372693336 3.702450353914617 -3.352635191172701 C 3.7067892963584157 -3.3431248952647126 3.7133133177307442 -3.3290675541578274 3.7262260936845895 -3.331554382081251 C 3.7747244407602305 -3.3313774947394172 3.769386605091961 -3.402507016431991 3.723385491077498 -3.3939852086107183 M 1.0232522436780291 -3.3881063057791936 C 0.9852006549083189 -3.3501795786625417 1.0592956408610417 -3.3000372198216246 1.0735298693097604 -3.357411149402205 C 1.0750282091464676 -3.3825187468048066 1.045529643611294 -3.4079384983400542 1.0232522436780291 -3.3881063057791936 M 2.296580976435293 -3.2026659407111655 C 1.3317749832489025 -3.07719038452469 1.230304079863008 -1.7328257763146473 2.174632761947734 -1.474819980543868 C 2.226772907237594 -1.7081760049732626 2.2732838730020473 -1.942884697310796 2.320606439511384 -2.177312450928946 C 2.176474471330353 -2.176972549762286 2.032363313424832 -2.1767401683524263 1.8882729657948214 -2.1766153066993668 C 2.115937379872279 -2.51566672044315 2.3619668620871557 -2.8428354668708247 2.5830448239657557 -3.1864131155379942 C 2.489055214625642 -3.205901938552943 2.392225002678438 -3.2129774322262827 2.296580976435294 -3.2026659407111655 M 2.6204200787813967 -3.1759975726453273 C 2.572556445108805 -2.950206083363754 2.5231840664617513 -2.7247475584903365 2.4789102053146035 -2.498165278739389 C 2.62417633351092 -2.498165278739389 2.7694528668449907 -2.4989144486577426 2.914729400179062 -2.498269330116938 C 2.6767222791732213 -2.1565750113834077 2.436269950794977 -1.8161917400069956 2.2101871176562655 -1.4664438446511636 C 3.324920740753173 -1.2927716903839404 3.6852610663435037 -2.808706615034715 2.620388863368132 -3.1760079777830823 M 0.8705672522624617 -3.11242218096282 C 0.8379991710895895 -3.0368496654488997 0.9272440376134633 -2.9697157166542114 0.9910691526020887 -3.022261662316514 C 1.016842678821004 -3.0056134419086558 1.0386726578308076 -2.9835857652815085 1.0653306207588904 -2.968154945990975 C 1.0778896220290681 -2.919250798542892 1.0872542460084884 -2.869576670900946 1.0982732868909393 -2.8203395590447062 C 1.1694756445477972 -2.832659242146521 1.2514577249187429 -2.8198193021569606 1.2533098394391171 -2.7313860363779696 C 1.32681173253981 -2.7325826272197844 1.4003760564670327 -2.7316773802351078 1.4738987598432354 -2.73197912923 C 1.4813280282002423 -2.7473787331072685 1.4887052708684743 -2.762778336984537 1.495884815919363 -2.7783340179281293 C 1.3253237978408579 -2.914131470767476 1.4339534360021315 -2.8651648924928637 1.2111586263939715 -2.8759133997936868 C 1.1426199840023714 -2.934577566455877 1.0833106987993772 -3.0038133530770565 1.0126598134435296 -3.0604068973260183 C 1.0109221554384593 -3.0760146039583853 1.014605574203698 -3.0925067472999195 1.0085809994436044 -3.107552576493521 C 0.9884886784388709 -3.1690157252117817 0.8958101164558762 -3.1710239167984797 0.8705776574002163 -3.112390965549555 M 3.7802703791835985 -3.1343041856613985 C 3.7590334930258247 -3.1146696907178812 3.7548506276483513 -3.0836207596572263 3.7607295304798742 -3.056411324428133 C 3.689017321073026 -3.0035324143576743 3.628469824477198 -2.9373037125476644 3.5641764782896015 -2.876100692273276 C 3.3455957494721806 -2.8655394774520415 3.4503754866641376 -2.912331381935877 3.2772652098356794 -2.7794681779434156 C 3.2841430058916754 -2.7632673784590187 3.2912705252537893 -2.747212250903191 3.299115999120992 -2.731375631240216 C 3.3721184456094497 -2.7326138426330506 3.4451833229244366 -2.7308241589392055 3.518248200239423 -2.7316669750973537 C 3.518445897856767 -2.81771746433047 3.603570329829696 -2.8328465346261105 3.6723899109406783 -2.821276021442649 C 3.6828574795221196 -2.8696703171407414 3.6949170341800617 -2.917710838155167 3.7050828537666103 -2.9661571595420337 C 3.733436854148743 -2.9796838386234183 3.7558703311483317 -3.0018884025923986 3.7813317032345988 -3.0197748343930915 C 3.819435317693084 -2.993990903036421 3.879608229329736 -2.998371466031239 3.900595392181392 -3.043800297469181 C 3.942330399716341 -3.1185404019627088 3.8397669568661814 -3.1952991031806888 3.780239163770333 -3.1343249959369093 M 0.7482860733667445 -2.766232842719168 C 0.7070713227195411 -2.756556064607101 0.6933677562963231 -2.698453775383676 0.7229703732090453 -2.669465061598493 C 0.7514284249687277 -2.6369698163899056 0.8144731546257349 -2.650871080430467 0.8221001206000849 -2.6948848131337417 C 0.835106542793724 -2.736838328561544 0.7903020196210762 -2.781601231183172 0.7482860733667445 -2.766201627305903 M 3.98768639519 -2.7659935245508054 C 3.9146215178750134 -2.736859138837054 3.9534743022518515 -2.627501141032937 4.029306946209646 -2.6556054181089515 C 4.097731132085942 -2.6842507623482224 4.058743080918288 -2.7874489186014317 3.98768639519 -2.7659935245508054 M 0.7424071705352197 -2.0401311147681964 C 0.6984038429696999 -2.0243881413450153 0.6935030230871368 -1.956505022631975 0.7316898786476611 -1.931584717708962 C 0.7664742541623293 -1.9036781382502896 0.8256898931255294 -1.9313870200916186 0.8250863951357443 -1.9764412665703848 C 0.8322139144978588 -2.019653803666531 0.7825293817181573 -2.0585273983188794 0.7424071705352197 -2.0401311147681964 M 3.9780200222156874 -2.0376442868447726 C 3.9036024769925612 -1.9949832220496369 3.973077581782105 -1.8814631691435548 4.043853328791011 -1.9332391346119935 C 4.100852673412415 -1.9770343594224147 4.04207405023492 -2.0716898975788425 3.9780200222156874 -2.0376442868447726 M 1.248148891112681 -1.9796044284478773 C 1.261311390372644 -1.8878623288628251 1.1724827293589664 -1.8563867871542188 1.0972015577021836 -1.8786745922252384 C 1.0852356492840358 -1.8255459588486618 1.0770155904576557 -1.771574509313937 1.0631039212793394 -1.7188412711720469 C 1.0346562746574122 -1.7157197298455733 1.0070410390558775 -1.707884661116125 0.9803310504390205 -1.6977604620805962 C 0.9690622862504515 -1.709726370498744 0.9586467433577855 -1.7262185138402781 0.9407915269703577 -1.7280602232228977 C 0.9144769335881873 -1.7311089285850865 0.8836257001448753 -1.7161567456312792 0.877798823002125 -1.688520699754235 C 0.8595274011045009 -1.6173911780616614 0.9733075824544554 -1.5922211498325307 0.977688145449273 -1.6682931119586875 C 1.017310910019975 -1.6703741395096698 1.0573290698253637 -1.6677936653464518 1.0967437316409678 -1.6725280030249365 C 1.1450860016502853 -1.721817140569951 1.192470998986151 -1.7728439361200357 1.246213535490268 -1.8165038941396432 C 1.4106147120178658 -1.8287923618281932 1.3479549724577902 -1.7861417021708124 1.4836795893328525 -1.8960407671381851 C 1.4726709535881566 -1.9244571983468477 1.458062140180261 -1.9513128588922735 1.4478547000426931 -1.9800206339580737 C 1.381261818411261 -1.9808634501162214 1.314668936779829 -1.9792714640397202 1.2481488911126812 -1.9796252387233872 M 3.3250143869929665 -1.979573213034612 C 3.3152959883298796 -1.9518643311932835 3.302684961370927 -1.9252479888162206 3.2914682228711327 -1.8980905792759022 C 3.439606169087805 -1.7898771466248253 3.348696480523145 -1.8264720161088484 3.5311817864687787 -1.8171490126804475 C 3.5820733152280497 -1.7711583038037402 3.631362452773065 -1.7231073776515595 3.677311541098752 -1.67213260779025 C 3.7146867959143934 -1.6707799398821113 3.752062050730035 -1.6701868470300814 3.7893852798569014 -1.6681890605811382 C 3.7941196175353857 -1.6558797826170784 3.7967625225251336 -1.6414790719642811 3.8080312867137023 -1.6330613155205578 C 3.8347933010193334 -1.611429034128097 3.881387507885827 -1.6239880353982756 3.89046078800811 -1.6582729643007075 C 3.908617753390429 -1.718092101253692 3.821662017172637 -1.7565598955335995 3.791736840989511 -1.6992900173305676 C 3.7642256567655257 -1.705272971539642 3.737807012005806 -1.7155844630547588 3.70984840685836 -1.7193199075087722 C 3.696196866123916 -1.7715536990384262 3.6835858391649636 -1.824182885802768 3.6736697428845333 -1.8772074678017954 C 3.5956312097226992 -1.8575209471695033 3.5166041884741484 -1.8887571707097464 3.5206205716475436 -1.979573213034612 C 3.4554323836130245 -1.9799686082692989 3.390192169889731 -1.9803223829529655 3.325003981855212 -1.979573213034612 M 1.414308535920859 -1.741066645416537 C 1.3743424018042447 -1.7393185822737123 1.3342722163100815 -1.7405151731155266 1.2943060821934675 -1.739818028885948 C 1.2816950552345152 -1.7406192244930758 1.273818365954047 -1.7292984346157327 1.2651716964797162 -1.7220252433250498 C 1.2225106316845797 -1.6802590203768362 1.1793084997261882 -1.6387841412857598 1.140185181767722 -1.5935946280161808 C 1.1052967548755044 -1.5918985905621295 1.069960907059826 -1.5964872563120456 1.0353326086114811 -1.5908060510978648 C 1.012056315453745 -1.5662811414095388 0.9804559120920793 -1.5473021701445808 0.9455258646488423 -1.5489461819098564 C 0.9335079305419198 -1.5481449863027281 0.918711824654436 -1.5553661519046362 0.9096905702209278 -1.5440557671650486 C 0.8684237938849498 -1.505036500584131 0.8228284802429288 -1.4711469669163848 0.7760781963101127 -1.4389638758404448 C 0.862440839675876 -1.2843331236647084 0.9740359420972993 -1.145466155187663 1.100219047651108 -1.0215721799399344 C 1.1234849356710894 -1.0459930382507108 1.1461681359767961 -1.070965368862498 1.1698398243692192 -1.0950324524896087 C 1.1515267819205754 -1.1428024399224062 1.1664581545988728 -1.1942558461204422 1.2213244459805201 -1.2042239680896474 C 1.2220632107611187 -1.21738646734961 1.2235095249090513 -1.2306426128493664 1.2279941392814182 -1.243055942190976 C 1.392717875079418 -1.3500935942757466 1.5528113245764825 -1.4692948523960103 1.6918968009463813 -1.6081410105975462 C 1.6714715155334903 -1.628274952153299 1.6514312202175312 -1.6488042889437389 1.6331910137331718 -1.670883991259661 C 1.5472966015663796 -1.6203774525973218 1.4646902129301391 -1.559351319664767 1.376277757426658 -1.5111547215840178 C 1.3545518297944033 -1.500239732079116 1.3435431940497071 -1.4776189625999394 1.327498471631634 -1.4605753469573943 C 1.291964926198612 -1.4212023056928098 1.2582730901482095 -1.3800395807343815 1.2203255527560481 -1.3429972903268972 C 1.1945624316748877 -1.3259536746843525 1.1644603681499297 -1.3170780921794139 1.137792000084092 -1.3015328163735762 C 1.128521022344466 -1.295456215924708 1.113173444155972 -1.2930630342410785 1.112673997543736 -1.2795051397464285 C 1.0773797702790773 -1.1652463220597484 0.9133635838484113 -1.2369793417421064 0.9656598062045952 -1.3436944345564767 C 0.9818085800002175 -1.374847416994681 1.0335325197798815 -1.3863034736628377 1.0547173802488805 -1.3545053726838292 C 1.0880138210645967 -1.3734427233977673 1.1188026236813788 -1.3966669908667293 1.152442434043007 -1.4152089463459818 C 1.1678420379202756 -1.4242302007794896 1.1852914539352617 -1.4314097458303787 1.196508192435056 -1.4459145078607252 C 1.2225210368223343 -1.479647964462147 1.2520716280462825 -1.5104991979054594 1.2820280196426717 -1.5407053128079662 C 1.2945141849485653 -1.5531914781138596 1.304305419575937 -1.5685078408890893 1.3194865155603521 -1.577924490557284 C 1.407305878211803 -1.6291108315529437 1.4934916342357332 -1.682953951055358 1.578043783632142 -1.739453849064526 C 1.561000167989597 -1.767859875135434 1.5400234102756964 -1.7936229962165937 1.5222722452658175 -1.8215295756752656 C 1.4850010418277255 -1.7969630454359202 1.4531509151599422 -1.7635209326916357 1.4143293461963684 -1.7410978608298016 M 3.249920507815772 -1.8243389628690916 C 3.232231773632423 -1.7962450909308316 3.215781250841908 -1.7669754384262655 3.1941073488984277 -1.7416597382685666 C 3.277233994422414 -1.6825065301318962 3.364647556701424 -1.6292842505155254 3.4528623145875605 -1.578101377899117 C 3.471404270066813 -1.5654903509401645 3.483359773347206 -1.5456997789303233 3.4996854344846615 -1.5304978726703977 C 3.5285388814790304 -1.5024040007321373 3.554104304942847 -1.4711885874674042 3.581969263850499 -1.4420542017536522 C 3.593414915380902 -1.429640872412043 3.609324371008161 -1.423116851039714 3.623974804967076 -1.41533380799904 C 3.656376403935869 -1.3983422180452703 3.686769811317966 -1.3777608555660557 3.7166741772255807 -1.3567320721633802 C 3.7506885725463857 -1.3936078803667855 3.8089261285606244 -1.3634850065663175 3.8165010688462 -1.3188989912865225 C 3.8366454155397083 -1.2127041553598987 3.674137974083504 -1.1796678429880552 3.6583429749715477 -1.2906490422819386 C 3.6261494787578523 -1.3065897133224627 3.594705152462511 -1.324091155026223 3.5621578815651485 -1.3392410355973734 C 3.5459154615297317 -1.346607873127851 3.535895313871753 -1.3619658564541002 3.5237837335250357 -1.3742231087293852 C 3.4881045161634456 -1.4104017727032114 3.4535698639548946 -1.4478290532076272 3.421417988292219 -1.4872020944722117 C 3.4139470993841927 -1.496421046523063 3.405622989180263 -1.505140551961678 3.395155420598823 -1.5108217571758598 C 3.307107144916764 -1.5586021497464126 3.2249689874794947 -1.6163298540106603 3.1424874604963136 -1.6727985366065634 C 3.1180666021855363 -1.6542565811273113 3.100325842313413 -1.6282853572910527 3.0773929187015887 -1.6079120975669365 C 3.2184449661071657 -1.4664022241001438 3.3817640083082527 -1.350769928229815 3.546310856764419 -1.2391644206706371 C 3.5477051452235773 -1.2285511801606273 3.5478091966011265 -1.2177298368955194 3.5485063408307056 -1.2069709244569418 C 3.596963067355327 -1.1981161522275117 3.6282721268598546 -1.1412208589836572 3.5998348853756825 -1.0981227784028151 C 3.6213214948395738 -1.0700289064645547 3.6484268786911174 -1.0469919314751803 3.6706522529356076 -1.0194807472511958 C 3.798494331234069 -1.1420999590341765 3.907295307336672 -1.2831347542825435 3.993450841506219 -1.4379129569271965 C 3.9431573994562235 -1.4711999197256302 3.896019350922165 -1.5090245988360098 3.8526277071312536 -1.5509127529455333 C 3.8196850409992025 -1.5460327433384808 3.782112088566217 -1.5489253716343465 3.7566403113421956 -1.5726907062665636 C 3.7479728315923544 -1.5793187790164418 3.741646507837368 -1.5895366242917648 3.731033267327359 -1.5931263968172091 C 3.698881391664682 -1.595821327495731 3.6654808994714174 -1.5880903101438313 3.6340990040026058 -1.5959149737355247 C 3.593029925283971 -1.636338933913355 3.55501995706528 -1.6797907891778645 3.5139924988976654 -1.7202147493556947 C 3.5046278749182447 -1.7284348081820746 3.4967928061887967 -1.7417950050593802 3.482777085632931 -1.7408481375236833 C 3.323942657804211 -1.7356455686462278 3.370724157150292 -1.7348547781768544 3.2499309129535274 -1.824370178282356 M 2.935237926693991 -1.4956614714669554 C 2.9342910591582942 -1.3606548090969817 2.9357789938572463 -1.2255545004872141 2.935529270551129 -1.0904958124284665 C 3.027604334544338 -1.0285020016847048 3.125381414027239 -0.9749987833489508 3.218902792168382 -0.9159704368653392 C 3.2596597167543693 -0.8560784639480703 3.1957513606637042 -0.7843766596789776 3.1360258699505135 -0.8328854118923732 C 3.1243096848384835 -0.845371577198267 3.124809131450719 -0.8635389477183422 3.120928015068137 -0.8790842235241794 C 3.0261476152586506 -0.9328163548905408 2.93180423123487 -0.9877866976497374 2.8412899379048975 -1.0485318918629094 C 2.837211123904972 -1.1782943648044073 2.8388031099814737 -1.3080880531591705 2.8403430703692005 -1.4379025517894433 C 2.8041644063953743 -1.4222948451570763 2.7687765328909206 -1.4047101623512765 2.7317030270701723 -1.3912563192341767 C 2.7314949243150743 -1.332051085408731 2.7317030270701723 -1.272793825894512 2.7317030270701723 -1.2135885920690668 C 2.7307977800854957 -1.2034747981712934 2.739725388279209 -1.196940371661209 2.7450007931209495 -1.1893238108246136 C 2.766331325518517 -1.1647989011362876 2.777548064018312 -1.1318562350042383 2.7765491707938406 -1.0994650411731994 C 2.7606189048910714 -1.0285748376489892 2.7678296653552246 -0.956165484012562 2.7672781930542145 -0.8839226125802129 C 2.933052847765461 -0.8840890947842914 2.9038144106741597 -0.9049305857073788 3.0336497195799423 -0.7851882604238605 C 3.0604117338855743 -0.763264635174262 3.050797386600036 -0.7236418706035601 3.041578434549185 -0.6951317931551029 C 3.038935529559437 -0.6655812019311549 3.0423171993297835 -0.6357288617123147 3.0412766855542928 -0.6060221934220422 C 3.0762587586863037 -0.6191326669932313 3.1104500413489427 -0.6341160653603035 3.144339575016689 -0.6497862028191994 C 3.1491259383839476 -0.6531678725895453 3.1581888133684752 -0.6536673192017814 3.158688259980711 -0.6608468642526697 C 3.1613311649704587 -0.6980764471397429 3.159728773756202 -0.7355037276441583 3.160686046429654 -0.7727853362200054 C 3.187146311740393 -0.7720361663016515 3.213564956500113 -0.7734824804495846 3.2400772474996273 -0.7739299013730454 C 3.2400772474996273 -0.7498524126081811 3.2396714471271855 -0.7256812776035222 3.2419709825710212 -0.7016662196651873 C 3.2467989664893 -0.6987215656805468 3.2513356065504415 -0.7055057154967495 3.2560179185401514 -0.7067023063385642 C 3.307502540151452 -0.7356077790217079 3.3579882685382816 -0.7661988840211462 3.4058519022108737 -0.8006919156786774 C 3.3909989212177543 -0.815528852376759 3.377254965066789 -0.8314359514239533 3.3647307978034644 -0.8482850157696409 C 3.3011554061209565 -0.8350600856831494 3.25912905472887 -0.8839954485444967 3.2703457932286644 -0.9455210280892863 C 3.249816456438224 -0.9648017483491369 3.2285795702804503 -0.9832396524508398 3.2086433263420404 -1.0031758963892496 C 3.116214487665164 -0.9800556802978373 3.0338370120595313 -1.082733579663302 3.071899005966997 -1.1688360945851919 C 3.06266964877839 -1.1776596514013566 3.0544495899520103 -1.1873780500644444 3.045626033135846 -1.1964929507377464 C 3.034419699773806 -1.198740460492807 3.022006370432197 -1.1960455298142856 3.012038248462992 -1.2027360333906927 C 2.991508911672552 -1.216189876507793 2.9869722716114104 -1.2454907444256231 2.99703403982041 -1.266727630583397 C 3.0103005904579216 -1.2988170754195432 3.060182820854966 -1.3026565712511058 3.0815133532525345 -1.2768934501699456 C 3.0959140639053313 -1.2606926506855483 3.1100234307009913 -1.244002809726671 3.128211611496576 -1.231787178002405 C 3.253291772448364 -1.3091285669346604 3.389952851721369 -1.1467355819937608 3.2842886778202445 -1.0395210425671548 C 3.297097402396541 -1.0258590966949557 3.309906126972836 -1.0121035045829636 3.3208211164777386 -0.9968599777720186 C 3.3913783555937917 -1.0161198877563598 3.44025128762861 -0.9662584676348245 3.42323888739933 -0.895836495309585 C 3.4386801118276185 -0.8787408539782664 3.4575758419905367 -0.8649852618662726 3.4718725012657847 -0.8467034348308946 C 3.521609059734261 -0.8826844011873778 3.5659141362946722 -0.9251477683651701 3.612466722610145 -0.9649682305532155 C 3.588347613294261 -0.9937696518588095 3.5654146896824366 -1.0247145315419162 3.552064897942885 -1.0601544307351443 C 3.4749628271789934 -1.053588788811795 3.4444445581438385 -1.1166543287443118 3.481892648923764 -1.1800632382227407 C 3.316804733304342 -1.2940827377410584 3.15118615565942 -1.4084247965297778 3.0041095334937493 -1.5456165378282836 C 2.9809268865758067 -1.5292700664153176 2.9593050103211014 -1.5107281109360655 2.9351859010052173 -1.4956718766047095 M 2.1199953835966956 -1.3665441170662609 C 2.1195479626732348 -1.312978467903977 2.1187987927548804 -1.2593711981906743 2.1192982393671165 -1.2058263593039014 C 2.138683011004516 -1.205920005543696 2.1580781877796706 -1.2058263593039014 2.1774629594170705 -1.2052748870028909 C 2.1785034731925617 -1.2537212083897575 2.177556605656865 -1.3021050989500949 2.1781601036466496 -1.3505514203369615 C 2.1584389506571404 -1.3545877626647962 2.1390078839717996 -1.3599304369931273 2.1199953835966956 -1.36654411706626 M 2.5925551198737447 -1.352393129719581 C 2.591701898577842 -1.3098881419907684 2.5925551198737447 -1.2673207234354265 2.5929505151084316 -1.2247637100178395 C 2.610639249291781 -1.2310900337728259 2.628733783847571 -1.2357723457625358 2.6474214112553915 -1.2376244602829103 C 2.647972883556402 -1.2800358017719287 2.6484619250308827 -1.3224471432609466 2.6468283184033616 -1.3648064590611906 C 2.62887945577614 -1.3599680700051562 2.6107433006693297 -1.3558892560052311 2.5925551198737447 -1.3523931297195815 M 3.703272359797255 -1.29526892344512 C 3.7075072508635047 -1.282262501251481 3.719920580205114 -1.2752390332669155 3.7322818838579486 -1.2712538655067847 C 3.743488217219988 -1.2762379264913872 3.7568484140972935 -1.281367659404558 3.7614162695716997 -1.2939786863635105 C 3.766556407622626 -1.3108246043887122 3.7558911414238425 -1.3298139807914255 3.7392949467047583 -1.3350893856331654 C 3.7174441574194446 -1.34450603530136 3.6924718268076577 -1.3160583886794326 3.7032619546595007 -1.29526892344512 M 1.0183930443464855 -1.3256207102761959 C 1.0014534800814898 -1.3113656715519681 1.0100689341425566 -1.2809722641698724 1.0300051780809665 -1.274136088664895 C 1.0514397618560838 -1.2643760694507882 1.0754131992433993 -1.2871945365473088 1.0721251757128474 -1.3089308693173187 C 1.0687851264935206 -1.3200955821283387 1.0602633186722485 -1.3284092871945123 1.0523554139785158 -1.3364420535413037 C 1.040743280244035 -1.3341945437862432 1.0275391604330528 -1.3342985951637925 1.0184138546219956 -1.3256207102761959 M 1.5419587658981102 -1.0979667013364929 C 1.5800207598055753 -1.0488440459955566 1.6477998271410674 -1.1037727682037337 1.6086869143203562 -1.1548828048558568 C 1.5671704146782601 -1.1931737117939312 1.509515546378297 -1.1434371533254555 1.5419587658981102 -1.0979667013364929 M 3.1843785450975863 -1.1682846222841832 C 3.115225999578446 -1.1537174294273078 3.1558996830623944 -1.0527251623781386 3.216124620387821 -1.0861568699846686 C 3.2598261989584483 -1.1123361965760257 3.235727899918074 -1.179709463539076 3.1843785450975863 -1.1682846222841832 M 2.6226155628476833 -1.150647913789609 C 2.575886089190377 -1.1304723516828363 2.6025336469807043 -1.0563981760056222 2.650782270750228 -1.0652737585105618 C 2.721006545458124 -1.0753875524083352 2.6860036620506027 -1.1807707875900766 2.6226155628476833 -1.150647913789609 M 2.109194850607097 -0.9522947727677349 C 2.0685315722609046 -0.9439706625638058 2.0629023927354977 -0.8848694801159103 2.0944923909594078 -0.8624360031163212 C 2.12066131241301 -0.8399609055657131 2.1669641754223647 -0.858752584351083 2.171490410345751 -0.8925380666412797 C 2.1815105580037306 -0.9278218887681837 2.1437399079534027 -0.9624085666655082 2.109194850607097 -0.9522947727677344 M 2.7122766348817535 -0.7981530620664796 C 2.7122766348817535 -0.7721402176792012 2.7115794906521744 -0.7460649424653942 2.712869727733784 -0.7200520980781158 C 2.745718747626039 -0.7003655774458233 2.7791608603703235 -0.6815530883849443 2.810750858594234 -0.6598479710281988 C 2.8101993862932235 -0.6172389319218374 2.811791372369725 -0.574629892815476 2.811791372369725 -0.5319688280203403 C 2.8607787609198474 -0.5449232245252045 2.9091730566179397 -0.5598754074790122 2.957660998555826 -0.574484220886907 C 2.958514219851729 -0.608467400794447 2.95955473362722 -0.6424609858397425 2.9616981920047314 -0.6763505195074884 C 2.9618022433822806 -0.6885037204052247 2.9697205532137683 -0.702113640588649 2.9615004943873884 -0.7129766044047758 C 2.9423654460561064 -0.7446706540062356 2.915447354684151 -0.770537826464945 2.89152594298561 -0.7984444059236169 C 2.8317796419969095 -0.7986004829899405 2.7720229358704547 -0.7996409967654317 2.712318255432774 -0.7981530620664787 M 2.3682411601533686 -0.46858072881741997 C 2.30769366355754 -0.452973022185053 2.300410067129102 -0.36863938068149693 2.3573781963372413 -0.34313638804420954 C 2.4771517370340232 -0.3011204417898785 2.491136242176624 -0.48837130082726166 2.368137108775818 -0.4685807288174204 Z" fill="#262626" transform="matrix(1,0,0,1,0,0)" fill-rule="nonzero"></path></g><g clip-path="url(#SvgjsClipPath13480c793fbea-84c9-41a2-ac86-2c32e61a1a5f)"><path d=" M 0.43950320535199816 -2.4768555566173314 C 0.5775689782219157 -2.5120353273666858 0.6883524798984558 -2.3441588348289484 0.5918968529104285 -2.2355708172186946 C 0.39651958128645987 -2.0464886539364473 0.1783862733925004 -2.394457270736189 0.43950320535199816 -2.4768555566173314 M 0.4531027203976672 -2.3947694248688367 C 0.3764688808327459 -2.3697138531550106 0.4027626639394066 -2.255340578953026 0.48255966538182105 -2.2659434143252803 C 0.577860322079053 -2.2778781073301633 0.5448448199827197 -2.420875915495909 0.4531027203976672 -2.3947694248688367 Z" fill="#262626" transform="matrix(1,0,0,1,0,0)" fill-rule="nonzero"></path></g><g clip-path="url(#SvgjsClipPath13480c793fbea-84c9-41a2-ac86-2c32e61a1a5f)"><path d=" M 4.266929077118553 -2.4771052799234496 C 4.455730301681417 -2.5154169971370326 4.527837906322953 -2.245747041942998 4.342522402907983 -2.1892471439338292 C 4.1376868610648 -2.1334235798787304 4.059908456346839 -2.431031329944702 4.266929077118553 -2.4771052799234496 M 4.275700608245943 -2.3946237529402676 C 4.184811729956793 -2.359017371542962 4.247190530797486 -2.230732428162661 4.331721869918385 -2.2734767340598365 C 4.399376075600818 -2.31464986415602 4.351012995315991 -2.417660727929641 4.275700608245943 -2.3946237529402676 Z" fill="#262626" transform="matrix(1,0,0,1,0,0)" fill-rule="nonzero"></path></g></g><g><path d=" M 1.0050000000000001 -2.220446049250313e-16 L 1.0050000000000001 0.029999999999999805 Q 0.9540000000000001 0.03149999999999986 0.9277500000000001 0.04499999999999971 Q 0.9015 0.058499999999999774 0.8925000000000001 0.0884999999999998 Q 0.8835000000000001 0.11849999999999983 0.8835000000000001 0.17399999999999982 L 0.8835000000000001 1.0695 Q 0.8745 1.0695 0.86625 1.0695 Q 0.858 1.0695 0.849 1.0695 L 0.219 0.09599999999999986 L 0.219 0.8879999999999998 Q 0.219 0.9419999999999998 0.22875 0.9727499999999998 Q 0.23850000000000002 1.0034999999999998 0.26775 1.0162499999999999 Q 0.297 1.029 0.3555 1.0319999999999998 L 0.3555 1.0619999999999998 Q 0.3285 1.059 0.28500000000000003 1.05825 Q 0.2415 1.0574999999999999 0.2025 1.0574999999999999 Q 0.165 1.0574999999999999 0.12675 1.05825 Q 0.0885 1.059 0.063 1.0619999999999998 L 0.063 1.0319999999999998 Q 0.114 1.029 0.14025 1.0162499999999999 Q 0.1665 1.0034999999999998 0.17550000000000002 0.9727499999999998 Q 0.1845 0.9419999999999998 0.1845 0.8879999999999998 L 0.1845 0.1589999999999998 Q 0.1845 0.10349999999999981 0.17550000000000002 0.07724999999999982 Q 0.1665 0.05099999999999971 0.14025 0.04124999999999979 Q 0.114 0.03149999999999986 0.063 0.029999999999999805 L 0.063 -2.220446049250313e-16 Q 0.0885 0.0014999999999998348 0.12675 0.0029999999999998916 Q 0.165 0.0044999999999997264 0.2025 0.0044999999999997264 Q 0.23550000000000001 0.0044999999999997264 0.2655 0.0029999999999998916 Q 0.2955 0.0014999999999998348 0.3195 -2.220446049250313e-16 L 0.849 0.8159999999999998 L 0.849 0.17399999999999982 Q 0.849 0.11849999999999983 0.83925 0.0884999999999998 Q 0.8295 0.058499999999999774 0.80025 0.04499999999999971 Q 0.771 0.03149999999999986 0.7125 0.029999999999999805 L 0.7125 -2.220446049250313e-16 Q 0.7395 0.0014999999999998348 0.7837500000000001 0.0029999999999998916 Q 0.8280000000000001 0.0044999999999997264 0.8655 0.0044999999999997264 Q 0.9045 0.0044999999999997264 0.94275 0.0029999999999998916 Q 0.981 0.0014999999999998348 1.0050000000000001 -2.220446049250313e-16 M 1.4459824218750001 0.26849999999999985 Q 1.5419824218750002 0.26849999999999985 1.618482421875 0.3104999999999998 Q 1.6949824218750003 0.3524999999999998 1.7407324218750002 0.4424999999999998 Q 1.7864824218750002 0.5324999999999999 1.7864824218750002 0.6764999999999999 Q 1.7864824218750002 0.8204999999999998 1.7407324218750002 0.9097499999999998 Q 1.6949824218750003 0.9989999999999999 1.618482421875 1.041 Q 1.5419824218750002 1.0829999999999997 1.4459824218750001 1.0829999999999997 Q 1.3514824218750001 1.0829999999999997 1.274232421875 1.041 Q 1.196982421875 0.9989999999999999 1.151232421875 0.9097499999999998 Q 1.1054824218750001 0.8204999999999998 1.1054824218750001 0.6764999999999999 Q 1.1054824218750001 0.5324999999999999 1.151232421875 0.4424999999999998 Q 1.196982421875 0.3524999999999998 1.274232421875 0.3104999999999998 Q 1.3514824218750001 0.26849999999999985 1.4459824218750001 0.26849999999999985 M 1.4459824218750001 0.29849999999999977 Q 1.360482421875 0.29849999999999977 1.3057324218750002 0.3869999999999998 Q 1.250982421875 0.4754999999999998 1.250982421875 0.6764999999999999 Q 1.250982421875 0.8774999999999998 1.3057324218750002 0.9652499999999998 Q 1.360482421875 1.053 1.4459824218750001 1.053 Q 1.531482421875 1.053 1.5862324218750001 0.9652499999999998 Q 1.640982421875 0.8774999999999998 1.640982421875 0.6764999999999999 Q 1.640982421875 0.4754999999999998 1.5862324218750001 0.3869999999999998 Q 1.531482421875 0.29849999999999977 1.4459824218750001 0.29849999999999977 M 2.5784143066406253 0.28949999999999987 L 2.5784143066406253 0.3194999999999998 Q 2.549914306640625 0.3224999999999998 2.525914306640625 0.34499999999999986 Q 2.501914306640625 0.3674999999999998 2.480914306640625 0.42449999999999977 L 2.234914306640625 1.0695 Q 2.2289143066406254 1.0695 2.222914306640625 1.0695 Q 2.2169143066406254 1.0695 2.209414306640625 1.0695 L 1.9334143066406253 0.4049999999999998 Q 1.9094143066406253 0.3464999999999998 1.8861643066406253 0.33374999999999977 Q 1.8629143066406253 0.32099999999999984 1.8464143066406253 0.32099999999999984 L 1.8464143066406253 0.28949999999999987 Q 1.8764143066406251 0.2909999999999998 1.9086643066406253 0.2932499999999998 Q 1.9409143066406251 0.29549999999999976 1.9784143066406252 0.29549999999999976 Q 2.024914306640625 0.29549999999999976 2.0766643066406254 0.2939999999999998 Q 2.128414306640625 0.29249999999999987 2.173414306640625 0.28949999999999987 L 2.173414306640625 0.32099999999999984 Q 2.1359143066406254 0.32099999999999984 2.106664306640625 0.3262499999999998 Q 2.0774143066406254 0.3314999999999998 2.069164306640625 0.3554999999999998 Q 2.0609143066406252 0.37949999999999984 2.083414306640625 0.43799999999999983 L 2.270914306640625 0.9014999999999999 L 2.2619143066406253 0.9089999999999998 L 2.432914306640625 0.4604999999999998 Q 2.452414306640625 0.4109999999999998 2.4486643066406253 0.3817499999999998 Q 2.444914306640625 0.3524999999999998 2.4186643066406255 0.3374999999999998 Q 2.3924143066406254 0.3224999999999998 2.338414306640625 0.3194999999999998 L 2.338414306640625 0.28949999999999987 Q 2.3654143066406252 0.2909999999999998 2.384914306640625 0.29174999999999984 Q 2.4044143066406254 0.29249999999999987 2.423164306640625 0.2932499999999998 Q 2.4419143066406255 0.2939999999999998 2.4644143066406254 0.2939999999999998 Q 2.498914306640625 0.2939999999999998 2.526664306640625 0.29249999999999987 Q 2.5544143066406253 0.2909999999999998 2.5784143066406253 0.28949999999999987 M 2.8334626464843753 1.0724999999999998 Q 2.771962646484375 1.0724999999999998 2.7269626464843753 1.0492499999999998 Q 2.6819626464843753 1.0259999999999998 2.6587126464843753 0.9839999999999999 Q 2.6354626464843753 0.9419999999999998 2.6354626464843753 0.8864999999999998 Q 2.6354626464843753 0.8204999999999998 2.666212646484375 0.7784999999999997 Q 2.6969626464843754 0.7364999999999998 2.7449626464843755 0.7109999999999999 Q 2.7929626464843755 0.6854999999999998 2.8462126464843753 0.6682499999999998 Q 2.899462646484375 0.6509999999999998 2.947462646484375 0.6352499999999999 Q 2.995462646484375 0.6194999999999998 3.0262126464843755 0.5984999999999998 Q 3.0569626464843753 0.5774999999999999 3.0569626464843753 0.5429999999999998 L 3.0569626464843753 0.44999999999999984 Q 3.0569626464843753 0.3869999999999998 3.0382126464843755 0.35399999999999987 Q 3.0194626464843752 0.32099999999999984 2.9879626464843754 0.30974999999999986 Q 2.9564626464843755 0.29849999999999977 2.9174626464843754 0.29849999999999977 Q 2.8799626464843753 0.29849999999999977 2.8372126464843754 0.30899999999999983 Q 2.794462646484375 0.3194999999999998 2.7689626464843755 0.3524999999999998 Q 2.7974626464843753 0.3584999999999998 2.818462646484375 0.38249999999999984 Q 2.8394626464843755 0.40649999999999986 2.8394626464843755 0.44399999999999984 Q 2.8394626464843755 0.4814999999999998 2.8154626464843755 0.5032499999999999 Q 2.7914626464843755 0.5249999999999998 2.7539626464843754 0.5249999999999998 Q 2.7104626464843755 0.5249999999999998 2.690212646484375 0.49724999999999986 Q 2.6699626464843753 0.4694999999999998 2.6699626464843753 0.43499999999999983 Q 2.6699626464843753 0.3959999999999998 2.689462646484375 0.3719999999999998 Q 2.7089626464843755 0.34799999999999986 2.7389626464843753 0.32699999999999985 Q 2.7734626464843752 0.3029999999999998 2.8282126464843755 0.28574999999999984 Q 2.8829626464843754 0.26849999999999985 2.9519626464843753 0.26849999999999985 Q 3.0134626464843755 0.26849999999999985 3.0569626464843753 0.28274999999999983 Q 3.100462646484375 0.2969999999999998 3.1289626464843754 0.32399999999999984 Q 3.1679626464843755 0.35999999999999976 3.179962646484375 0.41174999999999984 Q 3.1919626464843756 0.4634999999999998 3.1919626464843756 0.5354999999999999 L 3.1919626464843756 0.9524999999999998 Q 3.1919626464843756 0.9899999999999998 3.203212646484375 1.0064999999999997 Q 3.2144626464843755 1.023 3.2384626464843755 1.023 Q 3.2549626464843753 1.023 3.2699626464843754 1.0154999999999998 Q 3.2849626464843755 1.0079999999999998 3.3059626464843754 0.9914999999999998 L 3.322462646484375 1.017 Q 3.2909626464843753 1.041 3.2624626464843756 1.0567499999999999 Q 3.2339626464843754 1.0724999999999998 3.1859626464843753 1.0724999999999998 Q 3.1424626464843755 1.0724999999999998 3.1139626464843753 1.0574999999999999 Q 3.0854626464843755 1.0424999999999998 3.0712126464843754 1.0132499999999998 Q 3.0569626464843753 0.9839999999999999 3.0569626464843753 0.9389999999999998 Q 3.016462646484375 1.0064999999999997 2.960212646484375 1.0394999999999999 Q 2.9039626464843753 1.0724999999999998 2.8334626464843753 1.0724999999999998 M 2.8874626464843756 1.0124999999999997 Q 2.936962646484375 1.0124999999999997 2.9797126464843755 0.9839999999999999 Q 3.0224626464843753 0.9554999999999998 3.0569626464843753 0.8984999999999999 L 3.0569626464843753 0.6044999999999998 Q 3.0389626464843755 0.6299999999999999 3.0044626464843756 0.6472499999999999 Q 2.969962646484375 0.6644999999999999 2.9294626464843754 0.6817499999999999 Q 2.888962646484375 0.6989999999999998 2.852212646484375 0.7222499999999998 Q 2.8154626464843755 0.7454999999999998 2.7914626464843755 0.7829999999999998 Q 2.7674626464843755 0.8204999999999998 2.7674626464843755 0.8804999999999998 Q 2.7674626464843755 0.9404999999999999 2.7997126464843753 0.9764999999999998 Q 2.8319626464843752 1.0124999999999997 2.8874626464843756 1.0124999999999997 M 3.7724414062500005 -2.220446049250313e-16 L 3.7724414062500005 0.029999999999999805 Q 3.7214414062500003 0.03149999999999986 3.6951914062500006 0.04124999999999979 Q 3.6689414062500005 0.05099999999999971 3.6599414062500006 0.07724999999999982 Q 3.6509414062500003 0.10349999999999981 3.6509414062500003 0.1589999999999998 L 3.6509414062500003 0.9029999999999998 Q 3.6509414062500003 0.9569999999999999 3.6599414062500006 0.9839999999999999 Q 3.6689414062500005 1.011 3.6951914062500006 1.0199999999999998 Q 3.7214414062500003 1.029 3.7724414062500005 1.0319999999999998 L 3.7724414062500005 1.0619999999999998 Q 3.7379414062500005 1.059 3.6861914062500003 1.05825 Q 3.6344414062500006 1.0574999999999999 3.5819414062500003 1.0574999999999999 Q 3.5234414062500004 1.0574999999999999 3.4724414062500006 1.05825 Q 3.4214414062500005 1.059 3.3899414062500006 1.0619999999999998 L 3.3899414062500006 1.0319999999999998 Q 3.4409414062500003 1.029 3.4671914062500004 1.0199999999999998 Q 3.4934414062500005 1.011 3.5024414062500004 0.9839999999999999 Q 3.5114414062500003 0.9569999999999999 3.5114414062500003 0.9029999999999998 L 3.5114414062500003 0.1589999999999998 Q 3.5114414062500003 0.10349999999999981 3.5024414062500004 0.07724999999999982 Q 3.4934414062500005 0.05099999999999971 3.4671914062500004 0.04124999999999979 Q 3.4409414062500003 0.03149999999999986 3.3899414062500006 0.029999999999999805 L 3.3899414062500006 -2.220446049250313e-16 Q 3.4214414062500005 0.0014999999999998348 3.4724414062500006 0.0029999999999998916 Q 3.5234414062500004 0.0044999999999997264 3.5819414062500003 0.0044999999999997264 Q 3.6344414062500006 0.0044999999999997264 3.6861914062500003 0.0029999999999998916 Q 3.7379414062500005 0.0014999999999998348 3.7724414062500005 -2.220446049250313e-16 M 4.7264252929687505 -2.220446049250313e-16 Q 4.72042529296875 0.05699999999999972 4.71817529296875 0.11024999999999985 Q 4.715925292968751 0.16349999999999987 4.715925292968751 0.19199999999999984 Q 4.715925292968751 0.22799999999999987 4.71742529296875 0.25949999999999984 Q 4.71892529296875 0.2909999999999998 4.72042529296875 0.31499999999999984 L 4.685925292968751 0.31499999999999984 Q 4.67542529296875 0.20999999999999985 4.6574252929687505 0.14924999999999977 Q 4.639425292968751 0.0884999999999998 4.594425292968751 0.06149999999999989 Q 4.549425292968751 0.03449999999999975 4.454925292968751 0.03449999999999975 L 4.37392529296875 0.03449999999999975 L 4.37392529296875 0.8879999999999998 Q 4.37392529296875 0.9479999999999998 4.385175292968751 0.9779999999999999 Q 4.39642529296875 1.0079999999999998 4.429425292968751 1.0184999999999997 Q 4.46242529296875 1.029 4.525425292968751 1.0319999999999998 L 4.525425292968751 1.0619999999999998 Q 4.48642529296875 1.059 4.426425292968751 1.05825 Q 4.366425292968751 1.0574999999999999 4.3049252929687505 1.0574999999999999 Q 4.237425292968751 1.0574999999999999 4.178175292968751 1.05825 Q 4.1189252929687505 1.059 4.082925292968751 1.0619999999999998 L 4.082925292968751 1.0319999999999998 Q 4.145925292968751 1.029 4.178925292968751 1.0184999999999997 Q 4.2119252929687505 1.0079999999999998 4.223175292968751 0.9779999999999999 Q 4.2344252929687505 0.9479999999999998 4.2344252929687505 0.8879999999999998 L 4.2344252929687505 0.03449999999999975 L 4.153425292968751 0.03449999999999975 Q 4.060425292968751 0.03449999999999975 4.01467529296875 0.06149999999999989 Q 3.9689252929687506 0.0884999999999998 3.9509252929687504 0.14924999999999977 Q 3.9329252929687506 0.20999999999999985 3.9224252929687506 0.31499999999999984 L 3.8879252929687507 0.31499999999999984 Q 3.890925292968751 0.2909999999999998 3.8916752929687504 0.25949999999999984 Q 3.8924252929687504 0.22799999999999987 3.8924252929687504 0.19199999999999984 Q 3.8924252929687504 0.16349999999999987 3.8901752929687508 0.11024999999999985 Q 3.8879252929687507 0.05699999999999972 3.8819252929687504 -2.220446049250313e-16 Q 3.9449252929687506 0.0014999999999998348 4.01917529296875 0.0029999999999998916 Q 4.0934252929687505 0.0044999999999997264 4.168425292968751 0.0044999999999997264 Q 4.243425292968751 0.0044999999999997264 4.3049252929687505 0.0044999999999997264 Q 4.366425292968751 0.0044999999999997264 4.44067529296875 0.0044999999999997264 Q 4.5149252929687504 0.0044999999999997264 4.589925292968751 0.0029999999999998916 Q 4.664925292968751 0.0014999999999998348 4.7264252929687505 -2.220446049250313e-16" fill="#262626" fill-rule="nonzero"></path></g><g></g></g><defs><clipPath id="SvgjsClipPath13482"><path d=" M 0.3195215619001166 -4.364742940592919 h 4.1308396886997665 v 4.114742940592919 h -4.1308396886997665 Z"></path></clipPath><clipPath id="SvgjsClipPath13480c793fbea-84c9-41a2-ac86-2c32e61a1a5f"><path d=" M 0.3195215619001166 -4.364742940592919 L 4.450361250599883 -4.364742940592919 L 4.450361250599883 -0.25 L 0.3195215619001166 -0.25 Z"></path></clipPath></defs></svg>